Oxygen-Sans-Book-Kernagic.ufo
<glyph name="exclam" format="1">
  <advance width="617"></advance>
  <unicode hex="0021"></unicode>
  <outline>
    <contour>
      <point x="253" y="429" type="line"></point>
      <point x="319" y="429" type="line"></point>
      <point x="371" y="1335" type="line"></point>
      <point x="371" y="1457" type="line"></point>
      <point x="195" y="1457" type="line"></point>
      <point x="195" y="1335" type="line"></point>
    </contour>
    <contour>
      <point x="287" y="-13" type="curve" smooth="yes"></point>
      <point x="367" y="-13"></point>
      <point x="402" y="45"></point>
      <point x="402" y="105" type="curve" smooth="yes"></point>
      <point x="402" y="162"></point>
      <point x="367" y="222"></point>
      <point x="287" y="222" type="curve" smooth="yes"></point>
      <point x="207" y="222"></point>
      <point x="172" y="162"></point>
      <point x="172" y="105" type="curve" smooth="yes"></point>
      <point x="172" y="47"></point>
      <point x="207" y="-13"></point>
    </contour>
  </outline>
</glyph>
<glyph name="quotedbl" format="1">
  <advance width="783"></advance>
  <unicode hex="0022"></unicode>
  <outline>
    <contour>
      <point x="219" y="843" type="line"></point>
      <point x="294" y="843" type="line"></point>
      <point x="357" y="1475" type="line"></point>
      <point x="159" y="1475" type="line"></point>
    </contour>
    <contour>
      <point x="488" y="843" type="line"></point>
      <point x="564" y="843" type="line"></point>
      <point x="633" y="1475" type="line"></point>
      <point x="445" y="1475" type="line"></point>
    </contour>
  </outline>
</glyph>
<glyph name="numbersign" format="1">
  <advance width="1076"></advance>
  <unicode hex="0023"></unicode>
  <outline>
    <contour>
      <point x="535" y="-20" type="line"></point>
      <point x="660" y="-20" type="line"></point>
      <point x="753" y="442" type="line"></point>
      <point x="961" y="442" type="line"></point>
      <point x="976" y="536" type="line"></point>
      <point x="773" y="536" type="line"></point>
      <point x="866" y="992" type="line"></point>
      <point x="1057" y="992" type="line"></point>
      <point x="1072" y="1085" type="line"></point>
      <point x="884" y="1085" type="line"></point>
      <point x="966" y="1497" type="line"></point>
      <point x="842" y="1497" type="line"></point>
      <point x="759" y="1085" type="line"></point>
      <point x="476" y="1085" type="line"></point>
      <point x="558" y="1497" type="line"></point>
      <point x="432" y="1497" type="line"></point>
      <point x="350" y="1085" type="line"></point>
      <point x="147" y="1085" type="line"></point>
      <point x="134" y="992" type="line"></point>
      <point x="331" y="992" type="line"></point>
      <point x="238" y="536" type="line"></point>
      <point x="51" y="536" type="line"></point>
      <point x="38" y="442" type="line"></point>
      <point x="220" y="442" type="line"></point>
      <point x="127" y="-20" type="line"></point>
      <point x="251" y="-20" type="line"></point>
      <point x="345" y="442" type="line"></point>
      <point x="627" y="442" type="line"></point>
    </contour>
    <contour>
      <point x="647" y="536" type="line"></point>
      <point x="363" y="536" type="line"></point>
      <point x="457" y="992" type="line"></point>
      <point x="740" y="992" type="line"></point>
    </contour>
  </outline>
</glyph>
<glyph name="dollar" format="1">
  <advance width="529"></advance>
  <unicode hex="0024"></unicode>
  <outline>
    <component base="S"></component>
    <contour>
      <point x="184" y="-278" type="line"></point>
      <point x="320" y="-278" type="line"></point>
      <point x="358" y="61" type="line"></point>
      <point x="223" y="61" type="line"></point>
    </contour>
    <contour>
      <point x="368" y="1785" type="line"></point>
      <point x="238" y="1785" type="line"></point>
      <point x="200" y="1446" type="line"></point>
      <point x="331" y="1446" type="line"></point>
    </contour>
  </outline>
</glyph>
<glyph name="percent" format="1">
  <advance width="1412"></advance>
  <unicode hex="0025"></unicode>
  <outline>
    <contour>
      <point x="169" y="0" type="line"></point>
      <point x="998" y="1457" type="line"></point>
      <point x="1120" y="1457" type="line"></point>
      <point x="301" y="0" type="line"></point>
    </contour>
    <contour>
      <point x="273" y="714" type="curve" smooth="yes"></point>
      <point x="47" y="714"></point>
      <point x="-25" y="881"></point>
      <point x="-25" y="1096" type="curve" smooth="yes"></point>
      <point x="-25" y="1313"></point>
      <point x="51" y="1477"></point>
      <point x="273" y="1477" type="curve" smooth="yes"></point>
      <point x="500" y="1477"></point>
      <point x="573" y="1316"></point>
      <point x="573" y="1096" type="curve" smooth="yes"></point>
      <point x="573" y="881"></point>
      <point x="497" y="714"></point>
    </contour>
    <contour>
      <point x="274" y="810" type="curve" smooth="yes"></point>
      <point x="430" y="810"></point>
      <point x="457" y="936"></point>
      <point x="457" y="1097" type="curve" smooth="yes"></point>
      <point x="457" y="1264"></point>
      <point x="429" y="1381"></point>
      <point x="274" y="1381" type="curve" smooth="yes"></point>
      <point x="118" y="1381"></point>
      <point x="90" y="1258"></point>
      <point x="90" y="1097" type="curve" smooth="yes"></point>
      <point x="90" y="931"></point>
      <point x="118" y="810"></point>
    </contour>
    <contour>
      <point x="1019" y="94" type="curve" smooth="yes"></point>
      <point x="1175" y="94"></point>
      <point x="1202" y="221"></point>
      <point x="1202" y="382" type="curve" smooth="yes"></point>
      <point x="1202" y="549"></point>
      <point x="1174" y="666"></point>
      <point x="1019" y="666" type="curve" smooth="yes"></point>
      <point x="863" y="666"></point>
      <point x="835" y="543"></point>
      <point x="835" y="382" type="curve" smooth="yes"></point>
      <point x="835" y="216"></point>
      <point x="863" y="94"></point>
    </contour>
    <contour>
      <point x="1018" y="-1" type="curve" smooth="yes"></point>
      <point x="792" y="-1"></point>
      <point x="719" y="166"></point>
      <point x="719" y="381" type="curve" smooth="yes"></point>
      <point x="719" y="598"></point>
      <point x="796" y="763"></point>
      <point x="1018" y="763" type="curve" smooth="yes"></point>
      <point x="1245" y="763"></point>
      <point x="1318" y="601"></point>
      <point x="1318" y="381" type="curve" smooth="yes"></point>
      <point x="1318" y="166"></point>
      <point x="1242" y="-1"></point>
    </contour>
  </outline>
</glyph>
<glyph name="ampersand" format="1">
  <advance width="1235"></advance>
  <unicode hex="0026"></unicode>
  <outline>
    <contour>
      <point x="889" y="1194" type="curve" smooth="yes"></point>
      <point x="889" y="1396"></point>
      <point x="746" y="1496"></point>
      <point x="544" y="1496" type="curve" smooth="yes"></point>
      <point x="322" y="1496"></point>
      <point x="163" y="1368"></point>
      <point x="163" y="1176" type="curve" smooth="yes"></point>
      <point x="163" y="1054"></point>
      <point x="215" y="948"></point>
      <point x="310" y="840" type="curve"></point>
      <point x="337" y="810" type="line"></point>
      <point x="180" y="720"></point>
      <point x="38" y="603"></point>
      <point x="38" y="362" type="curve" smooth="yes"></point>
      <point x="38" y="160"></point>
      <point x="244" y="-20"></point>
      <point x="506" y="-20" type="curve" smooth="yes"></point>
      <point x="639" y="-20"></point>
      <point x="786" y="27"></point>
      <point x="928" y="138" type="curve"></point>
      <point x="1081" y="-36" type="line"></point>
      <point x="1197" y="62" type="line"></point>
      <point x="1038" y="240" type="line"></point>
      <point x="1105" y="311"></point>
      <point x="1168" y="400"></point>
      <point x="1228" y="506" type="curve"></point>
      <point x="1114" y="583" type="line"></point>
      <point x="1061" y="486"></point>
      <point x="1004" y="406"></point>
      <point x="946" y="341" type="curve"></point>
      <point x="545" y="787" type="line"></point>
      <point x="717" y="881"></point>
      <point x="889" y="976"></point>
    </contour>
    <contour>
      <point x="464" y="877" type="curve"></point>
      <point x="442" y="902" type="line"></point>
      <point x="348" y="1006"></point>
      <point x="310" y="1093"></point>
      <point x="310" y="1187" type="curve" smooth="yes"></point>
      <point x="310" y="1305"></point>
      <point x="421" y="1374"></point>
      <point x="546" y="1374" type="curve" smooth="yes"></point>
      <point x="675" y="1374"></point>
      <point x="740" y="1309"></point>
      <point x="740" y="1189" type="curve" smooth="yes"></point>
      <point x="740" y="1032"></point>
      <point x="611" y="955"></point>
    </contour>
    <contour>
      <point x="838" y="240" type="line"></point>
      <point x="725" y="153"></point>
      <point x="612" y="116"></point>
      <point x="512" y="116" type="curve" smooth="yes"></point>
      <point x="332" y="116"></point>
      <point x="198" y="233"></point>
      <point x="198" y="378" type="curve" smooth="yes"></point>
      <point x="198" y="544"></point>
      <point x="297" y="638"></point>
      <point x="420" y="715" type="curve"></point>
    </contour>
  </outline>
</glyph>
<glyph name="quotesingle" format="1">
  <advance width="529"></advance>
  <unicode hex="0027"></unicode>
  <outline>
    <contour>
      <point x="220" y="953" type="line"></point>
      <point x="311" y="953" type="line"></point>
      <point x="349" y="1473" type="line"></point>
      <point x="184" y="1473" type="line"></point>
    </contour>
  </outline>
</glyph>
<glyph name="parenleft" format="1">
  <advance width="737"></advance>
  <unicode hex="0028"></unicode>
  <outline>
    <contour>
      <point x="444" y="-229" type="curve"></point>
      <point x="598" y="-229" type="line"></point>
      <point x="414" y="67"></point>
      <point x="346" y="389"></point>
      <point x="346" y="714" type="curve" smooth="yes"></point>
      <point x="346" y="1024"></point>
      <point x="421" y="1311"></point>
      <point x="599" y="1590" type="curve"></point>
      <point x="442" y="1590" type="line"></point>
      <point x="278" y="1345"></point>
      <point x="184" y="1040"></point>
      <point x="184" y="710" type="curve" smooth="yes"></point>
      <point x="184" y="349"></point>
      <point x="280" y="5"></point>
    </contour>
  </outline>
</glyph>
<glyph name="parenright" format="1">
  <advance width="737"></advance>
  <unicode hex="0029"></unicode>
  <outline>
    <contour>
      <point x="134" y="-229" type="curve"></point>
      <point x="289" y="-229" type="line"></point>
      <point x="449" y="-4"></point>
      <point x="548" y="354"></point>
      <point x="548" y="716" type="curve" smooth="yes"></point>
      <point x="548" y="1045"></point>
      <point x="458" y="1337"></point>
      <point x="290" y="1590" type="curve"></point>
      <point x="133" y="1590" type="line"></point>
      <point x="321" y="1284"></point>
      <point x="386" y="1021"></point>
      <point x="386" y="718" type="curve" smooth="yes"></point>
      <point x="386" y="386"></point>
      <point x="307" y="41"></point>
    </contour>
  </outline>
</glyph>
<glyph name="asterisk" format="1">
  <advance width="882"></advance>
  <unicode hex="002A"></unicode>
  <outline>
    <contour>
      <point x="265" y="599" type="line"></point>
      <point x="135" y="681" type="line"></point>
      <point x="366" y="991" type="line"></point>
      <point x="25" y="1068" type="line"></point>
      <point x="67" y="1215" type="line"></point>
      <point x="403" y="1075" type="line"></point>
      <point x="369" y="1456" type="line"></point>
      <point x="529" y="1456" type="line"></point>
      <point x="493" y="1075" type="line"></point>
      <point x="831" y="1215" type="line"></point>
      <point x="873" y="1068" type="line"></point>
      <point x="528" y="991" type="line"></point>
      <point x="566" y="940"></point>
      <point x="672" y="798"></point>
      <point x="765" y="681" type="curve"></point>
      <point x="708" y="645"></point>
      <point x="693" y="635"></point>
      <point x="636" y="599" type="curve"></point>
      <point x="444" y="937" type="line"></point>
    </contour>
  </outline>
</glyph>
<glyph name="plus" format="1">
  <advance width="1152"></advance>
  <unicode hex="002B"></unicode>
  <outline>
    <contour>
      <point x="485" y="227" type="line"></point>
      <point x="657" y="227" type="line"></point>
      <point x="657" y="611" type="line"></point>
      <point x="1010" y="611" type="line"></point>
      <point x="1010" y="777" type="line"></point>
      <point x="657" y="777" type="line"></point>
      <point x="657" y="1156" type="line"></point>
      <point x="486" y="1156" type="line"></point>
      <point x="486" y="777" type="line"></point>
      <point x="127" y="777" type="line"></point>
      <point x="127" y="611" type="line"></point>
      <point x="485" y="611" type="line"></point>
    </contour>
  </outline>
</glyph>
<glyph name="comma" format="1">
  <advance width="645"></advance>
  <unicode hex="002C"></unicode>
  <outline>
    <contour>
      <point x="203" y="-300" type="line"></point>
      <point x="300" y="-300" type="line"></point>
      <point x="417" y="152" type="line"></point>
      <point x="417" y="235" type="line"></point>
      <point x="244" y="235" type="line"></point>
    </contour>
  </outline>
</glyph>
<glyph name="hyphen" format="1">
  <advance width="852"></advance>
  <unicode hex="002D"></unicode>
  <outline>
    <contour>
      <point x="184" y="535" type="line"></point>
      <point x="675" y="535" type="line"></point>
      <point x="675" y="690" type="line"></point>
      <point x="184" y="690" type="line"></point>
    </contour>
  </outline>
</glyph>
<glyph name="period" format="1">
  <advance width="645"></advance>
  <unicode hex="002E"></unicode>
  <outline>
    <contour>
      <point x="331" y="-11" type="curve" smooth="yes"></point>
      <point x="409" y="-11"></point>
      <point x="443" y="47"></point>
      <point x="443" y="106" type="curve" smooth="yes"></point>
      <point x="443" y="163"></point>
      <point x="409" y="223"></point>
      <point x="331" y="223" type="curve" smooth="yes"></point>
      <point x="252" y="223"></point>
      <point x="216" y="163"></point>
      <point x="216" y="106" type="curve" smooth="yes"></point>
      <point x="216" y="47"></point>
      <point x="253" y="-11"></point>
    </contour>
    <contour>
      <point x="324" y="102.775" type="move" smooth="yes"></point>
    </contour>
  </outline>
</glyph>
<glyph name="zero" format="1">
  <advance width="1255"></advance>
  <unicode hex="0030"></unicode>
  <outline>
    <contour>
      <point x="633" y="-20" type="curve" smooth="yes"></point>
      <point x="976" y="-20"></point>
      <point x="1116" y="259"></point>
      <point x="1116" y="703" type="curve" smooth="yes"></point>
      <point x="1116" y="1170"></point>
      <point x="960" y="1476"></point>
      <point x="633" y="1476" type="curve" smooth="yes"></point>
      <point x="306" y="1476"></point>
      <point x="140" y="1169"></point>
      <point x="140" y="703" type="curve" smooth="yes"></point>
      <point x="140" y="259"></point>
      <point x="290" y="-20"></point>
    </contour>
    <contour>
      <point x="633" y="123" type="curve" smooth="yes"></point>
      <point x="431" y="123"></point>
      <point x="305" y="282"></point>
      <point x="305" y="708" type="curve"></point>
      <point x="304" y="1114"></point>
      <point x="431" y="1334"></point>
      <point x="633" y="1334" type="curve" smooth="yes"></point>
      <point x="835" y="1334"></point>
      <point x="951" y="1143"></point>
      <point x="951" y="709" type="curve" smooth="yes"></point>
      <point x="951" y="283"></point>
      <point x="835" y="123"></point>
    </contour>
  </outline>
</glyph>
<glyph name="one" format="1">
  <advance width="1121"></advance>
  <unicode hex="0031"></unicode>
  <outline>
    <contour>
      <point x="133" y="0" type="line"></point>
      <point x="965" y="0" type="line"></point>
      <point x="965" y="123" type="line"></point>
      <point x="651" y="123" type="line"></point>
      <point x="651" y="1456" type="line"></point>
      <point x="498" y="1456" type="line"></point>
      <point x="422" y="1402"></point>
      <point x="247" y="1347"></point>
      <point x="164" y="1329" type="curve"></point>
      <point x="164" y="1194" type="line"></point>
      <point x="247" y="1205"></point>
      <point x="396" y="1249"></point>
      <point x="485" y="1301" type="curve"></point>
      <point x="485" y="123" type="line"></point>
      <point x="133" y="123" type="line"></point>
    </contour>
  </outline>
</glyph>
<glyph name="two" format="1">
  <advance width="1059"></advance>
  <unicode hex="0032"></unicode>
  <outline>
    <contour>
      <point x="77" y="0" type="line"></point>
      <point x="995" y="0" type="line"></point>
      <point x="1004" y="123" type="line"></point>
      <point x="238" y="123" type="line"></point>
      <point x="689" y="573" type="line"></point>
      <point x="886" y="759"></point>
      <point x="961" y="865"></point>
      <point x="961" y="1074" type="curve" smooth="yes"></point>
      <point x="961" y="1385"></point>
      <point x="701" y="1477"></point>
      <point x="517" y="1477" type="curve" smooth="yes"></point>
      <point x="251" y="1477"></point>
      <point x="141" y="1355"></point>
      <point x="87" y="1260" type="curve"></point>
      <point x="183" y="1160" type="line"></point>
      <point x="242" y="1249"></point>
      <point x="334" y="1334"></point>
      <point x="517" y="1334" type="curve" smooth="yes"></point>
      <point x="632" y="1334"></point>
      <point x="799" y="1284"></point>
      <point x="799" y="1058" type="curve" smooth="yes"></point>
      <point x="799" y="890"></point>
      <point x="725" y="826"></point>
      <point x="581" y="684" type="curve"></point>
      <point x="51" y="134" type="line"></point>
    </contour>
  </outline>
</glyph>
<glyph name="three" format="1">
  <advance width="1106"></advance>
  <unicode hex="0033"></unicode>
  <outline>
    <contour>
      <point x="562" y="-21" type="curve" smooth="yes"></point>
      <point x="805" y="-21"></point>
      <point x="999" y="123"></point>
      <point x="1003" y="412" type="curve"></point>
      <point x="1003" y="419" type="line" smooth="yes"></point>
      <point x="1003" y="630"></point>
      <point x="874" y="731"></point>
      <point x="698" y="769" type="curve"></point>
      <point x="861" y="812"></point>
      <point x="964" y="901"></point>
      <point x="964" y="1095" type="curve" smooth="yes"></point>
      <point x="964" y="1101" type="line"></point>
      <point x="961" y="1354"></point>
      <point x="764" y="1477"></point>
      <point x="535" y="1477" type="curve" smooth="yes"></point>
      <point x="410" y="1477"></point>
      <point x="193" y="1429"></point>
      <point x="95" y="1219" type="curve"></point>
      <point x="207" y="1143" type="line"></point>
      <point x="292" y="1304"></point>
      <point x="428" y="1335"></point>
      <point x="530" y="1335" type="curve" smooth="yes"></point>
      <point x="675" y="1335"></point>
      <point x="789" y="1264"></point>
      <point x="792" y="1090" type="curve"></point>
      <point x="792" y="1083" type="line" smooth="yes"></point>
      <point x="792" y="863"></point>
      <point x="606" y="833"></point>
      <point x="438" y="833" type="curve" smooth="yes"></point>
      <point x="395" y="833" type="line"></point>
      <point x="395" y="696" type="line"></point>
      <point x="437" y="696" type="line" smooth="yes"></point>
      <point x="661" y="696"></point>
      <point x="829" y="673"></point>
      <point x="829" y="412" type="curve" smooth="yes"></point>
      <point x="829" y="223"></point>
      <point x="725" y="125"></point>
      <point x="557" y="125" type="curve" smooth="yes"></point>
      <point x="471" y="125"></point>
      <point x="322" y="140"></point>
      <point x="236" y="297" type="curve"></point>
      <point x="119" y="216" type="line"></point>
      <point x="210" y="24"></point>
      <point x="444" y="-21"></point>
    </contour>
  </outline>
</glyph>
<glyph name="four" format="1">
  <advance width="1152"></advance>
  <unicode hex="0034"></unicode>
  <outline>
    <contour>
      <point x="234" y="513" type="line"></point>
      <point x="764" y="1245" type="line"></point>
      <point x="764" y="513" type="line"></point>
    </contour>
    <contour>
      <point x="764" y="0" type="line"></point>
      <point x="922" y="0" type="line"></point>
      <point x="922" y="377" type="line"></point>
      <point x="1109" y="377" type="line"></point>
      <point x="1121" y="513" type="line"></point>
      <point x="922" y="513" type="line"></point>
      <point x="922" y="1456" type="line"></point>
      <point x="753" y="1456" type="line"></point>
      <point x="69" y="525" type="line"></point>
      <point x="89" y="377" type="line"></point>
      <point x="764" y="377" type="line"></point>
    </contour>
  </outline>
</glyph>
<glyph name="five" format="1">
  <advance width="1166"></advance>
  <unicode hex="0035"></unicode>
  <outline>
    <contour>
      <point x="564" y="-20" type="curve" smooth="yes"></point>
      <point x="837" y="-20"></point>
      <point x="1037" y="147"></point>
      <point x="1037" y="476" type="curve" smooth="yes"></point>
      <point x="1037" y="724"></point>
      <point x="885" y="947"></point>
      <point x="603" y="947" type="curve" smooth="yes"></point>
      <point x="493" y="947"></point>
      <point x="399" y="894"></point>
      <point x="325" y="842" type="curve"></point>
      <point x="341" y="1321" type="line"></point>
      <point x="955" y="1321" type="line"></point>
      <point x="968" y="1456" type="line"></point>
      <point x="200" y="1456" type="line"></point>
      <point x="172" y="696" type="line"></point>
      <point x="306" y="679" type="line"></point>
      <point x="368" y="747"></point>
      <point x="479" y="813"></point>
      <point x="577" y="813" type="curve" smooth="yes"></point>
      <point x="787" y="813"></point>
      <point x="868" y="648"></point>
      <point x="868" y="473" type="curve" smooth="yes"></point>
      <point x="868" y="247"></point>
      <point x="759" y="124"></point>
      <point x="564" y="124" type="curve" smooth="yes"></point>
      <point x="388" y="124"></point>
      <point x="278" y="224"></point>
      <point x="221" y="366" type="curve"></point>
      <point x="95" y="274" type="line"></point>
      <point x="174" y="122"></point>
      <point x="306" y="-20"></point>
    </contour>
  </outline>
</glyph>
<glyph name="six" format="1">
  <advance width="1147"></advance>
  <unicode hex="0036"></unicode>
  <outline>
    <contour>
      <point x="546" y="114" type="curve" smooth="yes"></point>
      <point x="343" y="114"></point>
      <point x="235" y="266"></point>
      <point x="235" y="438" type="curve" smooth="yes"></point>
      <point x="235" y="681"></point>
      <point x="422" y="759"></point>
      <point x="552" y="759" type="curve" smooth="yes"></point>
      <point x="748" y="759"></point>
      <point x="858" y="625"></point>
      <point x="858" y="444" type="curve" smooth="yes"></point>
      <point x="858" y="270"></point>
      <point x="749" y="114"></point>
    </contour>
    <contour>
      <point x="550" y="-20" type="curve" smooth="yes"></point>
      <point x="837" y="-20"></point>
      <point x="1019" y="188"></point>
      <point x="1019" y="445" type="curve" smooth="yes"></point>
      <point x="1019" y="711"></point>
      <point x="842" y="891"></point>
      <point x="610" y="891" type="curve" smooth="yes"></point>
      <point x="497" y="891"></point>
      <point x="360" y="833"></point>
      <point x="293" y="753" type="curve"></point>
      <point x="324" y="774" type="line"></point>
      <point x="473" y="984" type="line"></point>
      <point x="819" y="1456" type="line"></point>
      <point x="630" y="1456" type="line"></point>
      <point x="295" y="1001" type="line" smooth="yes"></point>
      <point x="156" y="812"></point>
      <point x="76" y="667"></point>
      <point x="76" y="448" type="curve" smooth="yes"></point>
      <point x="76" y="204"></point>
      <point x="248" y="-20"></point>
    </contour>
  </outline>
</glyph>
<glyph name="seven" format="1">
  <advance width="1235"></advance>
  <unicode hex="0037"></unicode>
  <outline>
    <contour>
      <point x="536" y="0" type="line"></point>
      <point x="702" y="0" type="line"></point>
      <point x="1214" y="1336" type="line"></point>
      <point x="1214" y="1456" type="line"></point>
      <point x="229" y="1456" type="line"></point>
      <point x="248" y="1319" type="line"></point>
      <point x="1040" y="1319" type="line"></point>
    </contour>
  </outline>
</glyph>
<glyph name="eight" format="1">
  <advance width="1147"></advance>
  <unicode hex="0038"></unicode>
  <outline>
    <contour>
      <point x="555" y="818" type="curve"></point>
      <point x="370" y="860"></point>
      <point x="274" y="960"></point>
      <point x="274" y="1120" type="curve" smooth="yes"></point>
      <point x="274" y="1265"></point>
      <point x="387" y="1350"></point>
      <point x="555" y="1350" type="curve" smooth="yes"></point>
      <point x="724" y="1350"></point>
      <point x="834" y="1265"></point>
      <point x="834" y="1120" type="curve" smooth="yes"></point>
      <point x="834" y="960"></point>
      <point x="742" y="860"></point>
    </contour>
    <contour>
      <point x="555" y="111" type="curve" smooth="yes"></point>
      <point x="348" y="111"></point>
      <point x="238" y="204"></point>
      <point x="238" y="379" type="curve" smooth="yes"></point>
      <point x="238" y="558"></point>
      <point x="375" y="658"></point>
      <point x="555" y="698" type="curve"></point>
      <point x="736" y="658"></point>
      <point x="869" y="552"></point>
      <point x="869" y="380" type="curve" smooth="yes"></point>
      <point x="869" y="198"></point>
      <point x="768" y="111"></point>
    </contour>
    <contour>
      <point x="555" y="-20" type="curve" smooth="yes"></point>
      <point x="813" y="-20"></point>
      <point x="1026" y="104"></point>
      <point x="1026" y="364" type="curve" smooth="yes"></point>
      <point x="1026" y="554"></point>
      <point x="907" y="704"></point>
      <point x="724" y="765" type="curve"></point>
      <point x="884" y="824"></point>
      <point x="994" y="934"></point>
      <point x="994" y="1115" type="curve" smooth="yes"></point>
      <point x="994" y="1348"></point>
      <point x="812" y="1476"></point>
      <point x="556" y="1476" type="curve" smooth="yes"></point>
      <point x="300" y="1476"></point>
      <point x="114" y="1348"></point>
      <point x="114" y="1115" type="curve" smooth="yes"></point>
      <point x="114" y="934"></point>
      <point x="234" y="815"></point>
      <point x="389" y="763" type="curve"></point>
      <point x="197" y="695"></point>
      <point x="83" y="569"></point>
      <point x="83" y="364" type="curve" smooth="yes"></point>
      <point x="83" y="104"></point>
      <point x="299" y="-20"></point>
    </contour>
  </outline>
</glyph>
<glyph name="nine" format="1">
  <advance width="1147"></advance>
  <unicode hex="0039"></unicode>
  <outline>
    <contour>
      <point x="558" y="697" type="curve" smooth="yes"></point>
      <point x="362" y="697"></point>
      <point x="245" y="836"></point>
      <point x="245" y="1018" type="curve" smooth="yes"></point>
      <point x="245" y="1192"></point>
      <point x="363" y="1343"></point>
      <point x="566" y="1343" type="curve" smooth="yes"></point>
      <point x="769" y="1343"></point>
      <point x="881" y="1191"></point>
      <point x="881" y="1019" type="curve" smooth="yes"></point>
      <point x="881" y="775"></point>
      <point x="688" y="697"></point>
    </contour>
    <contour>
      <point x="254" y="0" type="line"></point>
      <point x="450" y="0" type="line"></point>
      <point x="807" y="460" type="line"></point>
      <point x="940" y="647"></point>
      <point x="1039" y="790"></point>
      <point x="1039" y="1008" type="curve" smooth="yes"></point>
      <point x="1039" y="1252"></point>
      <point x="863" y="1477"></point>
      <point x="561" y="1477" type="curve" smooth="yes"></point>
      <point x="274" y="1477"></point>
      <point x="83" y="1274"></point>
      <point x="83" y="1016" type="curve" smooth="yes"></point>
      <point x="83" y="749"></point>
      <point x="297" y="565"></point>
      <point x="529" y="565" type="curve" smooth="yes"></point>
      <point x="606" y="565"></point>
      <point x="681" y="586"></point>
      <point x="735" y="616" type="curve"></point>
      <point x="699" y="569"></point>
      <point x="662" y="521"></point>
      <point x="633" y="481" type="curve"></point>
    </contour>
  </outline>
</glyph>
<glyph name="colon" format="1">
  <advance width="645"></advance>
  <unicode hex="003A"></unicode>
  <outline>
    <contour>
      <point x="330" y="-10" type="curve" smooth="yes"></point>
      <point x="412" y="-10"></point>
      <point x="447" y="50"></point>
      <point x="447" y="112" type="curve" smooth="yes"></point>
      <point x="447" y="172"></point>
      <point x="412" y="235"></point>
      <point x="330" y="235" type="curve" smooth="yes"></point>
      <point x="247" y="235"></point>
      <point x="209" y="172"></point>
      <point x="209" y="112" type="curve" smooth="yes"></point>
      <point x="209" y="50"></point>
      <point x="248" y="-10"></point>
    </contour>
    <contour>
      <point x="330" y="838" type="curve" smooth="yes"></point>
      <point x="412" y="838"></point>
      <point x="447" y="898"></point>
      <point x="447" y="960" type="curve" smooth="yes"></point>
      <point x="447" y="1020"></point>
      <point x="412" y="1083"></point>
      <point x="330" y="1083" type="curve" smooth="yes"></point>
      <point x="247" y="1083"></point>
      <point x="209" y="1020"></point>
      <point x="209" y="960" type="curve" smooth="yes"></point>
      <point x="209" y="898"></point>
      <point x="248" y="838"></point>
    </contour>
  </outline>
</glyph>
<glyph name="semicolon" format="1">
  <advance width="617"></advance>
  <unicode hex="003B"></unicode>
  <outline>
    <contour>
      <point x="299" y="847" type="curve" smooth="yes"></point>
      <point x="381" y="847"></point>
      <point x="416" y="907"></point>
      <point x="416" y="969" type="curve" smooth="yes"></point>
      <point x="416" y="1029"></point>
      <point x="381" y="1092"></point>
      <point x="299" y="1092" type="curve" smooth="yes"></point>
      <point x="216" y="1092"></point>
      <point x="178" y="1029"></point>
      <point x="178" y="969" type="curve" smooth="yes"></point>
      <point x="178" y="907"></point>
      <point x="217" y="847"></point>
    </contour>
    <contour>
      <point x="178" y="-300" type="line"></point>
      <point x="275" y="-300" type="line"></point>
      <point x="392" y="152" type="line"></point>
      <point x="392" y="235" type="line"></point>
      <point x="219" y="235" type="line"></point>
    </contour>
  </outline>
</glyph>
<glyph name="equal" format="1">
  <advance width="1059"></advance>
  <unicode hex="003D"></unicode>
  <outline>
    <contour>
      <point x="108" y="409" type="line"></point>
      <point x="905" y="409" type="line"></point>
      <point x="905" y="556" type="line"></point>
      <point x="108" y="556" type="line"></point>
    </contour>
    <contour>
      <point x="108" y="792" type="line"></point>
      <point x="905" y="792" type="line"></point>
      <point x="905" y="939" type="line"></point>
      <point x="108" y="939" type="line"></point>
    </contour>
  </outline>
</glyph>
<glyph name="greater" format="1">
  <advance width="1059"></advance>
  <unicode hex="003E"></unicode>
  <outline>
    <contour>
      <point x="70" y="141" type="line"></point>
      <point x="1000" y="589" type="line"></point>
      <point x="1000" y="679" type="line"></point>
      <point x="72" y="1175" type="line"></point>
      <point x="72" y="1032" type="line"></point>
      <point x="807" y="640" type="line"></point>
      <point x="70" y="286" type="line"></point>
    </contour>
  </outline>
</glyph>
<glyph name="question" format="1">
  <advance width="794"></advance>
  <unicode hex="003F"></unicode>
  <outline>
    <contour>
      <point x="318" y="-13" type="curve" smooth="yes"></point>
      <point x="397" y="-13"></point>
      <point x="432" y="41"></point>
      <point x="432" y="101" type="curve" smooth="yes"></point>
      <point x="432" y="158"></point>
      <point x="397" y="214"></point>
      <point x="318" y="214" type="curve" smooth="yes"></point>
      <point x="239" y="214"></point>
      <point x="203" y="158"></point>
      <point x="203" y="101" type="curve" smooth="yes"></point>
      <point x="203" y="43"></point>
      <point x="239" y="-13"></point>
    </contour>
    <contour>
      <point x="320" y="1343" type="curve" smooth="yes"></point>
      <point x="445" y="1343"></point>
      <point x="518" y="1273"></point>
      <point x="518" y="1127" type="curve" smooth="yes"></point>
      <point x="518" y="908"></point>
      <point x="269" y="731"></point>
      <point x="260" y="424" type="curve"></point>
      <point x="343" y="424" type="line"></point>
      <point x="442" y="788"></point>
      <point x="677" y="836"></point>
      <point x="677" y="1132" type="curve" smooth="yes"></point>
      <point x="677" y="1380"></point>
      <point x="517" y="1477"></point>
      <point x="338" y="1477" type="curve" smooth="yes"></point>
      <point x="214" y="1477"></point>
      <point x="117" y="1437"></point>
      <point x="44" y="1382" type="curve"></point>
      <point x="77" y="1256" type="line"></point>
      <point x="119" y="1285"></point>
      <point x="214" y="1343"></point>
    </contour>
  </outline>
</glyph>
<glyph name="at" format="1">
  <advance width="1765"></advance>
  <unicode hex="0040"></unicode>
  <outline>
    <contour>
      <point x="835" y="377" type="curve" smooth="yes"></point>
      <point x="727" y="377"></point>
      <point x="666" y="471"></point>
      <point x="666" y="613" type="curve" smooth="yes"></point>
      <point x="666" y="815"></point>
      <point x="785" y="1017"></point>
      <point x="972" y="1017" type="curve" smooth="yes"></point>
      <point x="1008" y="1017"></point>
      <point x="1065" y="1009"></point>
      <point x="1110" y="999" type="curve"></point>
      <point x="1096" y="912"></point>
      <point x="1069" y="753"></point>
      <point x="1067" y="739" type="curve" smooth="yes"></point>
      <point x="1035" y="538"></point>
      <point x="987" y="377"></point>
    </contour>
    <contour>
      <point x="882" y="-151" type="curve" smooth="yes"></point>
      <point x="1073" y="-151"></point>
      <point x="1266" y="-102"></point>
      <point x="1394" y="-14" type="curve"></point>
      <point x="1352" y="89" type="line"></point>
      <point x="1217" y="3"></point>
      <point x="1049" y="-28"></point>
      <point x="885" y="-28" type="curve" smooth="yes"></point>
      <point x="465" y="-28"></point>
      <point x="233" y="249"></point>
      <point x="233" y="654" type="curve" smooth="yes"></point>
      <point x="233" y="1079"></point>
      <point x="507" y="1408"></point>
      <point x="942" y="1408" type="curve" smooth="yes"></point>
      <point x="1370" y="1408"></point>
      <point x="1579" y="1143"></point>
      <point x="1579" y="803" type="curve" smooth="yes"></point>
      <point x="1579" y="528"></point>
      <point x="1454" y="387"></point>
      <point x="1337" y="387" type="curve" smooth="yes"></point>
      <point x="1262" y="387"></point>
      <point x="1204" y="448"></point>
      <point x="1204" y="531" type="curve" smooth="yes"></point>
      <point x="1204" y="657"></point>
      <point x="1241" y="844"></point>
      <point x="1269" y="1049" type="curve"></point>
      <point x="1183" y="1093"></point>
      <point x="1052" y="1122"></point>
      <point x="956" y="1122" type="curve" smooth="yes"></point>
      <point x="672" y="1122"></point>
      <point x="522" y="866"></point>
      <point x="522" y="616" type="curve" smooth="yes"></point>
      <point x="522" y="417"></point>
      <point x="630" y="262"></point>
      <point x="818" y="262" type="curve" smooth="yes"></point>
      <point x="959" y="262"></point>
      <point x="1051" y="372"></point>
      <point x="1100" y="480" type="curve"></point>
      <point x="1130" y="349"></point>
      <point x="1207" y="266"></point>
      <point x="1337" y="266" type="curve" smooth="yes"></point>
      <point x="1508" y="266"></point>
      <point x="1706" y="445"></point>
      <point x="1706" y="795" type="curve" smooth="yes"></point>
      <point x="1706" y="1244"></point>
      <point x="1378" y="1527"></point>
      <point x="949" y="1527" type="curve" smooth="yes"></point>
      <point x="452" y="1527"></point>
      <point x="89" y="1158"></point>
      <point x="89" y="658" type="curve" smooth="yes"></point>
      <point x="89" y="156"></point>
      <point x="413" y="-151"></point>
    </contour>
  </outline>
</glyph>
<glyph name="A" format="1">
  <advance width="1235"></advance>
  <unicode hex="0041"></unicode>
  <outline>
    <contour>
      <point x="-12" y="0" type="line"></point>
      <point x="167" y="0" type="line"></point>
      <point x="358" y="513" type="line"></point>
      <point x="296" y="462" type="line"></point>
      <point x="976" y="462" type="line"></point>
      <point x="909" y="508" type="line"></point>
      <point x="1099" y="0" type="line"></point>
      <point x="1273" y="0" type="line"></point>
      <point x="716" y="1456" type="line"></point>
      <point x="545" y="1456" type="line"></point>
    </contour>
    <contour>
      <point x="363" y="543" type="line"></point>
      <point x="657" y="1350" type="line"></point>
      <point x="605" y="1350" type="line"></point>
      <point x="905" y="535" type="line"></point>
      <point x="945" y="587" type="line"></point>
      <point x="330" y="587" type="line"></point>
    </contour>
    <contour>
      <point x="631" y="0" type="move" smooth="yes"></point>
    </contour>
    <contour>
      <point x="1167" y="0" type="move" smooth="yes"></point>
    </contour>
    <contour>
      <point x="629" y="1496.5" type="move" smooth="yes"></point>
    </contour>
  </outline>
</glyph>
<glyph name="B" format="1">
  <advance width="1235"></advance>
  <unicode hex="0042"></unicode>
  <outline>
    <contour>
      <point x="121" y="12" type="line"></point>
      <point x="894" y="-38"></point>
      <point x="1135" y="48"></point>
      <point x="1140" y="423" type="curve" smooth="yes"></point>
      <point x="1143" y="623"></point>
      <point x="1069" y="779"></point>
      <point x="772" y="812" type="curve"></point>
      <point x="772" y="777" type="line"></point>
      <point x="1012" y="847"></point>
      <point x="1078" y="954"></point>
      <point x="1078" y="1099" type="curve" smooth="yes"></point>
      <point x="1078" y="1255"></point>
      <point x="1080" y="1543"></point>
      <point x="121" y="1436" type="curve"></point>
    </contour>
    <contour>
      <point x="257" y="143" type="curve"></point>
      <point x="297" y="98" type="line"></point>
      <point x="297" y="781" type="line"></point>
      <point x="238" y="728" type="line"></point>
      <point x="563" y="728" type="line" smooth="yes"></point>
      <point x="845" y="728"></point>
      <point x="964" y="633"></point>
      <point x="964" y="422" type="curve" smooth="yes"></point>
      <point x="964" y="235"></point>
      <point x="908" y="98"></point>
    </contour>
    <contour>
      <point x="241" y="854" type="line"></point>
      <point x="297" y="809" type="line"></point>
      <point x="297" y="1363" type="line"></point>
      <point x="257" y="1321" type="line"></point>
      <point x="813" y="1357"></point>
      <point x="921" y="1296"></point>
      <point x="921" y="1089" type="curve" smooth="yes"></point>
      <point x="921" y="886"></point>
      <point x="764" y="854"></point>
      <point x="574" y="854" type="curve" smooth="yes"></point>
    </contour>
    <contour>
      <point x="638" y="0.29694" type="move" smooth="yes"></point>
    </contour>
    <contour>
      <point x="575" y="1496.8" type="move" smooth="yes"></point>
    </contour>
  </outline>
</glyph>
<glyph name="C" format="1">
  <advance width="1235"></advance>
  <unicode hex="0043"></unicode>
  <outline>
    <contour>
      <point x="1069" y="368" type="line"></point>
      <point x="1034" y="233"></point>
      <point x="913" y="128"></point>
      <point x="739" y="123" type="curve" smooth="yes"></point>
      <point x="417" y="114"></point>
      <point x="272" y="364"></point>
      <point x="272" y="734" type="curve" smooth="yes"></point>
      <point x="272" y="1100"></point>
      <point x="422" y="1347"></point>
      <point x="756" y="1334" type="curve" smooth="yes"></point>
      <point x="888" y="1329"></point>
      <point x="1026" y="1245"></point>
      <point x="1058" y="1087" type="curve"></point>
      <point x="1194" y="1134" type="line"></point>
      <point x="1154" y="1383"></point>
      <point x="912" y="1471"></point>
      <point x="741" y="1477" type="curve" smooth="yes"></point>
      <point x="341" y="1492"></point>
      <point x="95" y="1184"></point>
      <point x="95" y="734" type="curve" smooth="yes"></point>
      <point x="95" y="261"></point>
      <point x="327" y="-25"></point>
      <point x="733" y="-20" type="curve" smooth="yes"></point>
      <point x="957" y="-17"></point>
      <point x="1161" y="116"></point>
      <point x="1195" y="325" type="curve"></point>
    </contour>
    <contour>
      <point x="799" y="0.5" type="move" smooth="yes"></point>
    </contour>
    <contour>
      <point x="777" y="1461" type="move" smooth="yes"></point>
    </contour>
  </outline>
</glyph>
<glyph name="D" format="1">
  <advance width="1428"></advance>
  <unicode hex="0044"></unicode>
  <outline>
    <contour>
      <point x="335" y="85" type="line"></point>
      <point x="335" y="1377" type="line"></point>
      <point x="295" y="1318" type="line"></point>
      <point x="926" y="1373"></point>
      <point x="1111" y="1213"></point>
      <point x="1111" y="739" type="curve" smooth="yes"></point>
      <point x="1111" y="326"></point>
      <point x="941" y="89"></point>
      <point x="295" y="147" type="curve"></point>
    </contour>
    <contour>
      <point x="159" y="11" type="line"></point>
      <point x="1070" y="-66"></point>
      <point x="1287" y="230"></point>
      <point x="1287" y="744" type="curve" smooth="yes"></point>
      <point x="1287" y="1251"></point>
      <point x="1089" y="1541"></point>
      <point x="159" y="1434" type="curve"></point>
    </contour>
    <contour>
      <point x="732" y="-0.744995" type="move" smooth="yes"></point>
    </contour>
    <contour>
      <point x="685" y="1496.78" type="move" smooth="yes"></point>
    </contour>
    <contour>
      <point x="248" y="769.03" type="move" smooth="yes"></point>
    </contour>
  </outline>
</glyph>
<glyph name="E" format="1">
  <advance width="1210"></advance>
  <unicode hex="0045"></unicode>
  <outline>
    <contour>
      <point x="152" y="0" type="line"></point>
      <point x="1106" y="0" type="line"></point>
      <point x="1118" y="137" type="line"></point>
      <point x="269" y="137" type="line"></point>
      <point x="328" y="67" type="line"></point>
      <point x="328" y="741" type="line"></point>
      <point x="269" y="686" type="line"></point>
      <point x="1035" y="686" type="line"></point>
      <point x="1035" y="822" type="line"></point>
      <point x="269" y="822" type="line"></point>
      <point x="328" y="775" type="line"></point>
      <point x="328" y="1374" type="line"></point>
      <point x="269" y="1321" type="line"></point>
      <point x="1097" y="1321" type="line"></point>
      <point x="1103" y="1456" type="line"></point>
      <point x="152" y="1456" type="line"></point>
    </contour>
    <contour>
      <point x="829" y="0" type="move" smooth="yes"></point>
    </contour>
    <contour>
      <point x="619" y="0" type="move" smooth="yes"></point>
    </contour>
    <contour>
      <point x="597" y="1496.5" type="move" smooth="yes"></point>
    </contour>
  </outline>
</glyph>
<glyph name="F" format="1">
  <advance width="1147"></advance>
  <unicode hex="0046"></unicode>
  <outline>
    <contour>
      <point x="134" y="0" type="line"></point>
      <point x="310" y="0" type="line"></point>
      <point x="310" y="718" type="line"></point>
      <point x="228" y="666" type="line"></point>
      <point x="992" y="666" type="line"></point>
      <point x="992" y="797" type="line"></point>
      <point x="235" y="797" type="line"></point>
      <point x="310" y="748" type="line"></point>
      <point x="310" y="1385" type="line"></point>
      <point x="235" y="1318" type="line"></point>
      <point x="1087" y="1318" type="line"></point>
      <point x="1097" y="1456" type="line"></point>
      <point x="134" y="1456" type="line"></point>
    </contour>
    <contour>
      <point x="588" y="1496.5" type="move" smooth="yes"></point>
    </contour>
  </outline>
</glyph>
<glyph name="G" format="1">
  <advance width="1324"></advance>
  <unicode hex="0047"></unicode>
  <outline>
    <contour>
      <point x="753" y="-20" type="curve" smooth="yes"></point>
      <point x="949" y="-20"></point>
      <point x="1074" y="14"></point>
      <point x="1221" y="72" type="curve"></point>
      <point x="1221" y="764" type="line"></point>
      <point x="770" y="764" type="line"></point>
      <point x="763" y="621" type="line"></point>
      <point x="1106" y="621" type="line"></point>
      <point x="1058" y="676" type="line"></point>
      <point x="1058" y="108" type="line"></point>
      <point x="1118" y="183" type="line"></point>
      <point x="1050" y="161"></point>
      <point x="963" y="123"></point>
      <point x="784" y="123" type="curve" smooth="yes"></point>
      <point x="399" y="123"></point>
      <point x="266" y="369"></point>
      <point x="266" y="738" type="curve" smooth="yes"></point>
      <point x="266" y="1091"></point>
      <point x="443" y="1334"></point>
      <point x="785" y="1334" type="curve" smooth="yes"></point>
      <point x="975" y="1334"></point>
      <point x="1056" y="1256"></point>
      <point x="1120" y="1188" type="curve"></point>
      <point x="1211" y="1294" type="line"></point>
      <point x="1129" y="1400"></point>
      <point x="993" y="1477"></point>
      <point x="782" y="1477" type="curve" smooth="yes"></point>
      <point x="343" y="1477"></point>
      <point x="89" y="1176"></point>
      <point x="89" y="737" type="curve" smooth="yes"></point>
      <point x="89" y="303"></point>
      <point x="304" y="-20"></point>
    </contour>
    <contour>
      <point x="792" y="0.5" type="move" smooth="yes"></point>
    </contour>
    <contour>
      <point x="797" y="1497" type="move" smooth="yes"></point>
    </contour>
  </outline>
</glyph>
<glyph name="H" format="1">
  <advance width="1324"></advance>
  <unicode hex="0048"></unicode>
  <outline>
    <contour>
      <point x="127" y="0" type="line"></point>
      <point x="303" y="0" type="line"></point>
      <point x="303" y="723" type="line"></point>
      <point x="243" y="678" type="line"></point>
      <point x="1103" y="678" type="line"></point>
      <point x="1052" y="723" type="line"></point>
      <point x="1052" y="0" type="line"></point>
      <point x="1228" y="0" type="line"></point>
      <point x="1228" y="1456" type="line"></point>
      <point x="1052" y="1456" type="line"></point>
      <point x="1052" y="780" type="line"></point>
      <point x="1102" y="820" type="line"></point>
      <point x="238" y="820" type="line"></point>
      <point x="303" y="780" type="line"></point>
      <point x="303" y="1456" type="line"></point>
      <point x="127" y="1456" type="line"></point>
    </contour>
    <contour>
      <point x="688" y="1496.5" type="move" smooth="yes"></point>
    </contour>
    <contour>
      <point x="685" y="1206.42" type="move" smooth="yes"></point>
    </contour>
  </outline>
</glyph>
<glyph name="I" format="1">
  <advance width="921"></advance>
  <unicode hex="0049"></unicode>
  <outline>
    <contour>
      <point x="171" y="1456" type="line"></point>
      <point x="171" y="1347" type="line"></point>
      <point x="403" y="1347" type="line"></point>
      <point x="363" y="1401" type="line"></point>
      <point x="363" y="58" type="line"></point>
      <point x="403" y="110" type="line"></point>
      <point x="171" y="110" type="line"></point>
      <point x="171" y="0" type="line"></point>
      <point x="729" y="0" type="line"></point>
      <point x="729" y="110" type="line"></point>
      <point x="499" y="110" type="line"></point>
      <point x="539" y="56" type="line"></point>
      <point x="539" y="1402" type="line"></point>
      <point x="499" y="1347" type="line"></point>
      <point x="729" y="1347" type="line"></point>
      <point x="729" y="1456" type="line"></point>
    </contour>
    <contour>
      <point x="452" y="0" type="move" smooth="yes"></point>
    </contour>
    <contour>
      <point x="451" y="1456" type="move" smooth="yes"></point>
    </contour>
  </outline>
</glyph>
<glyph name="J" format="1">
  <advance width="986"></advance>
  <unicode hex="004A"></unicode>
  <outline>
    <contour>
      <point x="353" y="-168" type="line" smooth="yes"></point>
      <point x="678" y="-133"></point>
      <point x="788" y="0"></point>
      <point x="788" y="308" type="curve" smooth="yes"></point>
      <point x="788" y="1456" type="line"></point>
      <point x="612" y="1456" type="line"></point>
      <point x="612" y="282" type="line" smooth="yes"></point>
      <point x="612" y="84"></point>
      <point x="547" y="13"></point>
      <point x="341" y="-19" type="curve"></point>
      <point x="261" y="-31" type="line"></point>
      <point x="277" y="-176" type="line"></point>
    </contour>
    <contour>
      <point x="705" y="1456" type="move" smooth="yes"></point>
    </contour>
  </outline>
</glyph>
<glyph name="K" format="1">
  <advance width="1235"></advance>
  <unicode hex="004B"></unicode>
  <outline>
    <contour>
      <point x="127" y="0" type="line"></point>
      <point x="303" y="0" type="line"></point>
      <point x="303" y="650" type="line"></point>
      <point x="257" y="539" type="line"></point>
      <point x="523" y="787" type="line"></point>
      <point x="451" y="786" type="line"></point>
      <point x="1053" y="0" type="line"></point>
      <point x="1259" y="0" type="line"></point>
      <point x="568" y="896" type="line"></point>
      <point x="568" y="800" type="line"></point>
      <point x="1229" y="1456" type="line"></point>
      <point x="1023" y="1456" type="line"></point>
      <point x="251" y="696" type="line"></point>
      <point x="303" y="695" type="line"></point>
      <point x="303" y="1456" type="line"></point>
      <point x="127" y="1456" type="line"></point>
    </contour>
    <contour>
      <point x="604" y="0" type="move" smooth="yes"></point>
    </contour>
    <contour>
      <point x="601" y="1496.5" type="move" smooth="yes"></point>
    </contour>
  </outline>
</glyph>
<glyph name="L" format="1">
  <advance width="1147"></advance>
  <unicode hex="004C"></unicode>
  <outline>
    <contour>
      <point x="134" y="0" type="line"></point>
      <point x="1016" y="0" type="line"></point>
      <point x="1020" y="137" type="line"></point>
      <point x="240" y="137" type="line"></point>
      <point x="310" y="72" type="line"></point>
      <point x="310" y="1456" type="line"></point>
      <point x="134" y="1456" type="line"></point>
    </contour>
    <contour>
      <point x="571" y="0" type="move" smooth="yes"></point>
    </contour>
    <contour>
      <point x="685" y="849.725" type="move" smooth="yes"></point>
    </contour>
    <contour>
      <point x="378" y="1456" type="move" smooth="yes"></point>
    </contour>
    <contour>
      <point x="224" y="795.4" type="move" smooth="yes"></point>
    </contour>
  </outline>
</glyph>
<glyph name="M" format="1">
  <advance width="1677"></advance>
  <unicode hex="004D"></unicode>
  <outline>
    <contour>
      <point x="108" y="0" type="line"></point>
      <point x="274" y="0" type="line"></point>
      <point x="300" y="924" type="line"></point>
      <point x="300" y="1314" type="line"></point>
      <point x="270" y="1304" type="line"></point>
      <point x="760" y="167" type="line"></point>
      <point x="911" y="167" type="line"></point>
      <point x="1410" y="1303" type="line"></point>
      <point x="1374" y="1315" type="line"></point>
      <point x="1374" y="928" type="line"></point>
      <point x="1400" y="0" type="line"></point>
      <point x="1564" y="0" type="line"></point>
      <point x="1523" y="1456" type="line"></point>
      <point x="1313" y="1456" type="line"></point>
      <point x="815" y="318" type="line"></point>
      <point x="859" y="318" type="line"></point>
      <point x="365" y="1456" type="line"></point>
      <point x="149" y="1456" type="line"></point>
    </contour>
    <contour>
      <point x="851" y="1496.5" type="move" smooth="yes"></point>
    </contour>
  </outline>
</glyph>
<glyph name="N" format="1">
  <advance width="1412"></advance>
  <unicode hex="004E"></unicode>
  <outline>
    <contour>
      <point x="140" y="0" type="line"></point>
      <point x="303" y="0" type="line"></point>
      <point x="303" y="761" type="line"></point>
      <point x="284" y="1312" type="line"></point>
      <point x="242" y="1298" type="line"></point>
      <point x="1060" y="0" type="line"></point>
      <point x="1241" y="0" type="line"></point>
      <point x="1241" y="1456" type="line"></point>
      <point x="1079" y="1456" type="line"></point>
      <point x="1079" y="644" type="line"></point>
      <point x="1091" y="145" type="line"></point>
      <point x="1126" y="160" type="line"></point>
      <point x="314" y="1456" type="line"></point>
      <point x="140" y="1456" type="line"></point>
    </contour>
    <contour>
      <point x="748" y="1496.5" type="move" smooth="yes"></point>
    </contour>
  </outline>
</glyph>
<glyph name="O" format="1">
  <advance width="1567"></advance>
  <unicode hex="004F"></unicode>
  <outline>
    <contour>
      <point x="769" y="122" type="curve" smooth="yes"></point>
      <point x="419" y="122"></point>
      <point x="297" y="365"></point>
      <point x="297" y="720" type="curve" smooth="yes"></point>
      <point x="297" y="1091"></point>
      <point x="431" y="1334"></point>
      <point x="771" y="1334" type="curve" smooth="yes"></point>
      <point x="1112" y="1334"></point>
      <point x="1240" y="1089"></point>
      <point x="1240" y="720" type="curve" smooth="yes"></point>
      <point x="1240" y="365"></point>
      <point x="1119" y="122"></point>
    </contour>
    <contour>
      <point x="771" y="-20" type="curve" smooth="yes"></point>
      <point x="1213" y="-20"></point>
      <point x="1416" y="275"></point>
      <point x="1416" y="718" type="curve" smooth="yes"></point>
      <point x="1416" y="1181"></point>
      <point x="1201" y="1476"></point>
      <point x="772" y="1476" type="curve" smooth="yes"></point>
      <point x="334" y="1476"></point>
      <point x="120" y="1184"></point>
      <point x="120" y="721" type="curve" smooth="yes"></point>
      <point x="120" y="269"></point>
      <point x="324" y="-20"></point>
    </contour>
    <contour>
      <point x="771" y="0.5" type="move" smooth="yes"></point>
    </contour>
    <contour>
      <point x="777" y="1476" type="move" smooth="yes"></point>
    </contour>
  </outline>
</glyph>
<glyph name="P" format="1">
  <advance width="1255"></advance>
  <unicode hex="0050"></unicode>
  <outline>
    <contour>
      <point x="159" y="0" type="line"></point>
      <point x="335" y="0" type="line"></point>
      <point x="335" y="678" type="line"></point>
      <point x="275" y="639" type="line"></point>
      <point x="966" y="605"></point>
      <point x="1136" y="808"></point>
      <point x="1136" y="1068" type="curve" smooth="yes"></point>
      <point x="1136" y="1403"></point>
      <point x="914" y="1489"></point>
      <point x="159" y="1445" type="curve"></point>
    </contour>
    <contour>
      <point x="275" y="1315" type="line"></point>
      <point x="826" y="1352"></point>
      <point x="960" y="1290"></point>
      <point x="960" y="1066" type="curve" smooth="yes"></point>
      <point x="960" y="868"></point>
      <point x="849" y="744"></point>
      <point x="275" y="778" type="curve"></point>
      <point x="335" y="731" type="line"></point>
      <point x="335" y="1372" type="line"></point>
    </contour>
    <contour>
      <point x="634" y="1496.5" type="move" smooth="yes"></point>
    </contour>
  </outline>
</glyph>
<glyph name="Q" format="1">
  <advance width="807"></advance>
  <unicode hex="0051"></unicode>
  <outline>
    <component base="O"></component>
    <contour>
      <point x="498" y="-401" type="curve"></point>
      <point x="610" y="-301" type="line"></point>
      <point x="516" y="-201"></point>
      <point x="378" y="-19"></point>
      <point x="326" y="91" type="curve"></point>
      <point x="178" y="62" type="line"></point>
      <point x="268" y="-120"></point>
      <point x="426" y="-331"></point>
    </contour>
  </outline>
</glyph>
<glyph name="R" format="1">
  <advance width="1290"></advance>
  <unicode hex="0052"></unicode>
  <outline>
    <contour>
      <point x="159" y="0" type="line"></point>
      <point x="335" y="0" type="line"></point>
      <point x="335" y="728" type="line"></point>
      <point x="285" y="674" type="line"></point>
      <point x="419" y="661"></point>
      <point x="601" y="662"></point>
      <point x="727" y="669" type="curve"></point>
      <point x="668" y="709" type="line"></point>
      <point x="1025" y="0" type="line"></point>
      <point x="1222" y="0" type="line"></point>
      <point x="841" y="729" type="line"></point>
      <point x="818" y="691" type="line"></point>
      <point x="1049" y="735"></point>
      <point x="1182" y="850"></point>
      <point x="1177" y="1086" type="curve" smooth="yes"></point>
      <point x="1171" y="1346"></point>
      <point x="1016" y="1456"></point>
      <point x="562" y="1456" type="curve" smooth="yes"></point>
      <point x="422" y="1456"></point>
      <point x="292" y="1447"></point>
      <point x="159" y="1432" type="curve"></point>
    </contour>
    <contour>
      <point x="285" y="1316" type="line"></point>
      <point x="314" y="1320"></point>
      <point x="505" y="1328"></point>
      <point x="573" y="1328" type="curve" smooth="yes"></point>
      <point x="919" y="1328"></point>
      <point x="1014" y="1254"></point>
      <point x="1015" y="1077" type="curve" smooth="yes"></point>
      <point x="1017" y="816"></point>
      <point x="832" y="771"></point>
      <point x="285" y="802" type="curve"></point>
      <point x="335" y="755" type="line"></point>
      <point x="335" y="1368" type="line"></point>
    </contour>
    <contour>
      <point x="666" y="0" type="move" smooth="yes"></point>
    </contour>
    <contour>
      <point x="711" y="1496.5" type="move" smooth="yes"></point>
    </contour>
  </outline>
</glyph>
<glyph name="S" format="1">
  <advance width="1147"></advance>
  <unicode hex="0053"></unicode>
  <outline>
    <contour>
      <point x="1058" y="374" type="curve" smooth="yes"></point>
      <point x="1061" y="709"></point>
      <point x="842" y="734"></point>
      <point x="457" y="892" type="curve"></point>
      <point x="325" y="945"></point>
      <point x="246" y="983"></point>
      <point x="257" y="1120" type="curve" smooth="yes"></point>
      <point x="271" y="1297"></point>
      <point x="405" y="1334"></point>
      <point x="579" y="1334" type="curve" smooth="yes"></point>
      <point x="729" y="1334"></point>
      <point x="854" y="1252"></point>
      <point x="906" y="1146" type="curve"></point>
      <point x="1026" y="1227" type="line"></point>
      <point x="938" y="1402"></point>
      <point x="768" y="1476"></point>
      <point x="573" y="1476" type="curve" smooth="yes"></point>
      <point x="330" y="1476"></point>
      <point x="102" y="1399"></point>
      <point x="84" y="1121" type="curve" smooth="yes"></point>
      <point x="64" y="819"></point>
      <point x="264" y="800"></point>
      <point x="624" y="651" type="curve" smooth="yes"></point>
      <point x="795" y="580"></point>
      <point x="898" y="529"></point>
      <point x="893" y="369" type="curve" smooth="yes"></point>
      <point x="887" y="184"></point>
      <point x="741" y="123"></point>
      <point x="556" y="123" type="curve" smooth="yes"></point>
      <point x="430" y="123"></point>
      <point x="265" y="171"></point>
      <point x="181" y="316" type="curve"></point>
      <point x="67" y="243" type="line"></point>
      <point x="103" y="123"></point>
      <point x="277" y="-20"></point>
      <point x="559" y="-20" type="curve" smooth="yes"></point>
      <point x="794" y="-20"></point>
      <point x="1055" y="72"></point>
    </contour>
    <contour>
      <point x="526" y="0.5" type="move" smooth="yes"></point>
    </contour>
    <contour>
      <point x="549" y="1497" type="move" smooth="yes"></point>
    </contour>
  </outline>
</glyph>
<glyph name="T" format="1">
  <advance width="1300"></advance>
  <unicode hex="0054"></unicode>
  <outline>
    <contour>
      <point x="738" y="0" type="line"></point>
      <point x="914" y="0" type="line"></point>
      <point x="914" y="1387" type="line"></point>
      <point x="855" y="1319" type="line"></point>
      <point x="1393" y="1319" type="line"></point>
      <point x="1393" y="1456" type="line"></point>
      <point x="261" y="1456" type="line"></point>
      <point x="261" y="1319" type="line"></point>
      <point x="792" y="1319" type="line"></point>
      <point x="738" y="1384" type="line"></point>
    </contour>
    <contour>
      <point x="831" y="0" type="move" smooth="yes"></point>
    </contour>
    <contour>
      <point x="830" y="1496.5" type="move" smooth="yes"></point>
    </contour>
    <contour>
      <point x="823" y="785.15" type="move" smooth="yes"></point>
    </contour>
  </outline>
</glyph>
<glyph name="U" format="1">
  <advance width="1390"></advance>
  <unicode hex="0055"></unicode>
  <outline>
    <contour>
      <point x="694" y="-20" type="curve" smooth="yes"></point>
      <point x="1078" y="-20"></point>
      <point x="1242" y="217"></point>
      <point x="1242" y="540" type="curve" smooth="yes"></point>
      <point x="1242" y="1457" type="line"></point>
      <point x="1066" y="1457" type="line"></point>
      <point x="1066" y="546" type="line" smooth="yes"></point>
      <point x="1066" y="271"></point>
      <point x="957" y="123"></point>
      <point x="694" y="123" type="curve" smooth="yes"></point>
      <point x="422" y="123"></point>
      <point x="322" y="271"></point>
      <point x="322" y="546" type="curve" smooth="yes"></point>
      <point x="322" y="1457" type="line"></point>
      <point x="146" y="1457" type="line"></point>
      <point x="146" y="543" type="line" smooth="yes"></point>
      <point x="146" y="211"></point>
      <point x="306" y="-20"></point>
    </contour>
    <contour>
      <point x="839" y="21" type="move" smooth="yes"></point>
    </contour>
    <contour>
      <point x="691" y="0.5" type="move" smooth="yes"></point>
    </contour>
    <contour>
      <point x="706" y="1497" type="move" smooth="yes"></point>
    </contour>
  </outline>
</glyph>
<glyph name="V" format="1">
  <advance width="1059"></advance>
  <unicode hex="0056"></unicode>
  <outline>
    <contour>
      <point x="472" y="0" type="line"></point>
      <point x="626" y="0" type="line"></point>
      <point x="1175" y="1456" type="line"></point>
      <point x="994" y="1456" type="line"></point>
      <point x="550" y="220" type="line"></point>
      <point x="105" y="1456" type="line"></point>
      <point x="-75" y="1456" type="line"></point>
    </contour>
  </outline>
</glyph>
<glyph name="W" format="1">
  <advance width="1613"></advance>
  <unicode hex="0057"></unicode>
  <outline>
    <contour>
      <point x="297" y="0" type="line"></point>
      <point x="464" y="0" type="line"></point>
      <point x="806" y="1209" type="line"></point>
      <point x="1135" y="0" type="line"></point>
      <point x="1306" y="0" type="line"></point>
      <point x="1639" y="1456" type="line"></point>
      <point x="1469" y="1456" type="line"></point>
      <point x="1219" y="230" type="line"></point>
      <point x="889" y="1425" type="line"></point>
      <point x="719" y="1425" type="line"></point>
      <point x="384" y="229" type="line"></point>
      <point x="119" y="1456" type="line"></point>
      <point x="-44" y="1456" type="line"></point>
    </contour>
    <contour>
      <point x="803" y="0" type="move" smooth="yes"></point>
    </contour>
    <contour>
      <point x="800" y="1496.5" type="move" smooth="yes"></point>
    </contour>
  </outline>
</glyph>
<glyph name="X" format="1">
  <advance width="1147"></advance>
  <unicode hex="0058"></unicode>
  <outline>
    <contour>
      <point x="960" y="0" type="line"></point>
      <point x="1159" y="0" type="line"></point>
      <point x="673" y="730" type="line"></point>
      <point x="1152" y="1456" type="line"></point>
      <point x="964" y="1456" type="line"></point>
      <point x="585" y="873" type="line"></point>
      <point x="190" y="1456" type="line"></point>
      <point x="-10" y="1456" type="line"></point>
      <point x="473" y="730" type="line"></point>
      <point x="-12" y="0" type="line"></point>
      <point x="173" y="0" type="line"></point>
      <point x="565" y="584" type="line"></point>
    </contour>
  </outline>
</glyph>
<glyph name="Y" format="1">
  <advance width="1076"></advance>
  <unicode hex="0059"></unicode>
  <outline>
    <contour>
      <point x="465" y="0" type="line"></point>
      <point x="641" y="0" type="line"></point>
      <point x="641" y="510" type="line"></point>
      <point x="1150" y="1456" type="line"></point>
      <point x="976" y="1456" type="line"></point>
      <point x="553" y="659" type="line"></point>
      <point x="114" y="1456" type="line"></point>
      <point x="-57" y="1456" type="line"></point>
      <point x="465" y="508" type="line"></point>
    </contour>
    <contour>
      <point x="552" y="1496.5" type="move" smooth="yes"></point>
    </contour>
  </outline>
</glyph>
<glyph name="Z" format="1">
  <advance width="1166"></advance>
  <unicode hex="005A"></unicode>
  <outline>
    <contour>
      <point x="70" y="0" type="line"></point>
      <point x="1098" y="0" type="line"></point>
      <point x="1106" y="137" type="line"></point>
      <point x="270" y="137" type="line"></point>
      <point x="1099" y="1332" type="line"></point>
      <point x="1092" y="1456" type="line"></point>
      <point x="103" y="1456" type="line"></point>
      <point x="103" y="1321" type="line"></point>
      <point x="903" y="1321" type="line"></point>
      <point x="70" y="127" type="line"></point>
    </contour>
    <contour>
      <point x="662" y="0" type="move" smooth="yes"></point>
    </contour>
    <contour>
      <point x="648" y="1496.5" type="move" smooth="yes"></point>
    </contour>
  </outline>
</glyph>
<glyph name="bracketleft" format="1">
  <advance width="762"></advance>
  <unicode hex="005B"></unicode>
  <outline>
    <contour>
      <point x="191" y="-255" type="line"></point>
      <point x="191" y="1503" type="line"></point>
      <point x="655" y="1503" type="line"></point>
      <point x="655" y="1382" type="line"></point>
      <point x="367" y="1382" type="line"></point>
      <point x="367" y="-135" type="line"></point>
      <point x="655" y="-135" type="line"></point>
      <point x="655" y="-255" type="line"></point>
    </contour>
  </outline>
</glyph>
<glyph name="backslash" format="1">
  <advance width="875"></advance>
  <unicode hex="005C"></unicode>
  <outline>
    <contour>
      <point x="613" y="-20" type="line"></point>
      <point x="69" y="1497" type="line"></point>
      <point x="200" y="1497" type="line"></point>
      <point x="743" y="-20" type="line"></point>
    </contour>
  </outline>
</glyph>
<glyph name="bracketright" format="1">
  <advance width="897"></advance>
  <unicode hex="005D"></unicode>
  <outline>
    <contour>
      <point x="261" y="-255" type="line"></point>
      <point x="261" y="-135" type="line"></point>
      <point x="549" y="-135" type="line"></point>
      <point x="549" y="1382" type="line"></point>
      <point x="261" y="1382" type="line"></point>
      <point x="261" y="1503" type="line"></point>
      <point x="725" y="1503" type="line"></point>
      <point x="725" y="-255" type="line"></point>
    </contour>
  </outline>
</glyph>
<glyph name="asciicircum" format="1">
  <advance width="897"></advance>
  <unicode hex="005E"></unicode>
  <unicode hex="0302"></unicode>
  <outline>
    <contour>
      <point x="261" y="1087" type="line"></point>
      <point x="372" y="1087" type="line"></point>
      <point x="530" y="1368" type="line"></point>
      <point x="684" y="1087" type="line"></point>
      <point x="796" y="1087" type="line"></point>
      <point x="628" y="1469" type="line"></point>
      <point x="441" y="1469" type="line"></point>
    </contour>
  </outline>
</glyph>
<glyph name="underscore" format="1">
  <advance width="1152"></advance>
  <unicode hex="005F"></unicode>
  <outline>
    <contour>
      <point x="260" y="-260" type="line"></point>
      <point x="1156" y="-260" type="line"></point>
      <point x="1156" y="-138" type="line"></point>
      <point x="260" y="-138" type="line"></point>
    </contour>
  </outline>
</glyph>
<glyph name="grave" format="1">
  <advance width="794"></advance>
  <unicode hex="0060"></unicode>
  <outline>
    <contour>
      <point x="499" y="1058" type="line"></point>
      <point x="593" y="1058" type="line"></point>
      <point x="417" y="1470" type="line"></point>
      <point x="229" y="1470" type="line"></point>
    </contour>
    <contour>
      <point x="555" y="945.25" type="move" smooth="yes"></point>
    </contour>
  </outline>
</glyph>
<glyph name="a" format="1">
  <advance width="1121"></advance>
  <unicode hex="0061"></unicode>
  <outline>
    <contour>
      <point x="825" y="313" type="line"></point>
      <point x="750" y="191"></point>
      <point x="620" y="96"></point>
      <point x="450" y="104" type="curve" smooth="yes"></point>
      <point x="357" y="108"></point>
      <point x="279" y="167"></point>
      <point x="279" y="292" type="curve" smooth="yes"></point>
      <point x="279" y="415"></point>
      <point x="346" y="494"></point>
      <point x="576" y="494" type="curve" smooth="yes"></point>
      <point x="631" y="494"></point>
      <point x="769" y="486"></point>
      <point x="846" y="473" type="curve"></point>
      <point x="801" y="527" type="line"></point>
      <point x="801" y="239" type="line"></point>
    </contour>
    <contour>
      <point x="801" y="561" type="line"></point>
      <point x="845" y="588" type="line"></point>
      <point x="759" y="601"></point>
      <point x="621" y="607"></point>
      <point x="560" y="607" type="curve" smooth="yes"></point>
      <point x="241" y="607"></point>
      <point x="121" y="482"></point>
      <point x="121" y="293" type="curve" smooth="yes"></point>
      <point x="121" y="92"></point>
      <point x="251" y="-20"></point>
      <point x="442" y="-20" type="curve" smooth="yes"></point>
      <point x="564" y="-20"></point>
      <point x="722" y="16"></point>
      <point x="846" y="179" type="curve"></point>
      <point x="816" y="189" type="line"></point>
      <point x="839" y="0" type="line"></point>
      <point x="965" y="0" type="line"></point>
      <point x="965" y="717" type="line" smooth="yes"></point>
      <point x="965" y="1006"></point>
      <point x="799" y="1106"></point>
      <point x="558" y="1106" type="curve" smooth="yes"></point>
      <point x="369" y="1106"></point>
      <point x="192" y="1036"></point>
      <point x="164" y="878" type="curve"></point>
      <point x="299" y="853" type="line"></point>
      <point x="332" y="954"></point>
      <point x="438" y="980"></point>
      <point x="556" y="980" type="curve" smooth="yes"></point>
      <point x="719" y="980"></point>
      <point x="801" y="898"></point>
      <point x="801" y="742" type="curve" smooth="yes"></point>
    </contour>
    <contour>
      <point x="567" y="1082.9" type="move" smooth="yes"></point>
    </contour>
    <contour>
      <point x="904" y="0.5" type="move" smooth="yes"></point>
    </contour>
    <contour>
      <point x="490" y="0.5" type="move" smooth="yes"></point>
    </contour>
  </outline>
</glyph>
<glyph name="b" format="1">
  <advance width="1147"></advance>
  <unicode hex="0062"></unicode>
  <outline>
    <contour>
      <point x="592" y="110" type="curve" smooth="yes"></point>
      <point x="394" y="110"></point>
      <point x="284" y="261"></point>
      <point x="284" y="559" type="curve" smooth="yes"></point>
      <point x="284" y="812"></point>
      <point x="375" y="978"></point>
      <point x="602" y="978" type="curve" smooth="yes"></point>
      <point x="817" y="978"></point>
      <point x="881" y="799"></point>
      <point x="881" y="542" type="curve" smooth="yes"></point>
      <point x="881" y="275"></point>
      <point x="804" y="110"></point>
    </contour>
    <contour>
      <point x="608" y="-20" type="curve" smooth="yes"></point>
      <point x="903" y="-20"></point>
      <point x="1051" y="204"></point>
      <point x="1051" y="542" type="curve" smooth="yes"></point>
      <point x="1051" y="880"></point>
      <point x="915" y="1108"></point>
      <point x="616" y="1108" type="curve" smooth="yes"></point>
      <point x="454" y="1108"></point>
      <point x="350" y="1022"></point>
      <point x="264" y="874" type="curve"></point>
      <point x="285" y="872" type="line"></point>
      <point x="291" y="1105" type="line"></point>
      <point x="291" y="1560" type="line"></point>
      <point x="127" y="1548" type="line"></point>
      <point x="127" y="0" type="line"></point>
      <point x="258" y="0" type="line"></point>
      <point x="278" y="251" type="line"></point>
      <point x="253" y="244" type="line"></point>
      <point x="308" y="113"></point>
      <point x="423" y="-20"></point>
    </contour>
  </outline>
</glyph>
<glyph name="c" format="1">
  <advance width="1076"></advance>
  <unicode hex="0063"></unicode>
  <outline>
    <contour>
      <point x="607" y="-20" type="curve" smooth="yes"></point>
      <point x="848" y="-20"></point>
      <point x="970" y="131"></point>
      <point x="991" y="243" type="curve"></point>
      <point x="886" y="293" type="line"></point>
      <point x="851" y="187"></point>
      <point x="781" y="106"></point>
      <point x="613" y="106" type="curve" smooth="yes"></point>
      <point x="378" y="106"></point>
      <point x="297" y="285"></point>
      <point x="297" y="543" type="curve" smooth="yes"></point>
      <point x="297" y="825"></point>
      <point x="409" y="978"></point>
      <point x="617" y="980" type="curve" smooth="yes"></point>
      <point x="791" y="982"></point>
      <point x="853" y="868"></point>
      <point x="879" y="771" type="curve"></point>
      <point x="993" y="824" type="line"></point>
      <point x="979" y="922"></point>
      <point x="892" y="1105"></point>
      <point x="623" y="1106" type="curve" smooth="yes"></point>
      <point x="400" y="1107"></point>
      <point x="127" y="974"></point>
      <point x="127" y="538" type="curve" smooth="yes"></point>
      <point x="127" y="200"></point>
      <point x="311" y="-20"></point>
    </contour>
    <contour>
      <point x="624" y="1083" type="move" smooth="yes"></point>
    </contour>
    <contour>
      <point x="643" y="1" type="move" smooth="yes"></point>
    </contour>
  </outline>
</glyph>
<glyph name="d" format="1">
  <advance width="1244"></advance>
  <unicode hex="0064"></unicode>
  <outline>
    <contour>
      <point x="558" y="-20" type="curve" smooth="yes"></point>
      <point x="752" y="-20"></point>
      <point x="833" y="82"></point>
      <point x="898" y="247" type="curve"></point>
      <point x="873" y="256" type="line"></point>
      <point x="893" y="0" type="line"></point>
      <point x="1029" y="0" type="line"></point>
      <point x="1029" y="1560" type="line"></point>
      <point x="865" y="1548" type="line"></point>
      <point x="865" y="1160" type="line"></point>
      <point x="875" y="837" type="line"></point>
      <point x="893" y="867" type="line"></point>
      <point x="833" y="990"></point>
      <point x="772" y="1106"></point>
      <point x="557" y="1106" type="curve" smooth="yes"></point>
      <point x="274" y="1106"></point>
      <point x="114" y="879"></point>
      <point x="114" y="551" type="curve" smooth="yes"></point>
      <point x="114" y="208"></point>
      <point x="261" y="-20"></point>
    </contour>
    <contour>
      <point x="572" y="109" type="curve" smooth="yes"></point>
      <point x="356" y="109"></point>
      <point x="282" y="290"></point>
      <point x="282" y="548" type="curve" smooth="yes"></point>
      <point x="282" y="817"></point>
      <point x="371" y="980"></point>
      <point x="581" y="980" type="curve" smooth="yes"></point>
      <point x="780" y="980"></point>
      <point x="872" y="826"></point>
      <point x="872" y="531" type="curve"></point>
      <point x="871" y="278"></point>
      <point x="801" y="109"></point>
    </contour>
    <contour>
      <point x="1260" y="1011.15" type="move" smooth="yes"></point>
    </contour>
  </outline>
</glyph>
<glyph name="e" format="1">
  <advance width="1152"></advance>
  <unicode hex="0065"></unicode>
  <outline>
    <contour>
      <point x="626" y="-20" type="curve" smooth="yes"></point>
      <point x="775" y="-20"></point>
      <point x="899" y="20"></point>
      <point x="990" y="75" type="curve"></point>
      <point x="955" y="195" type="line"></point>
      <point x="861" y="145"></point>
      <point x="761" y="106"></point>
      <point x="644" y="106" type="curve" smooth="yes"></point>
      <point x="434" y="106"></point>
      <point x="282" y="249"></point>
      <point x="281" y="567" type="curve"></point>
      <point x="230" y="516" type="line"></point>
      <point x="1015" y="516" type="line"></point>
      <point x="1015" y="516"></point>
      <point x="1021" y="576"></point>
      <point x="1021" y="602" type="curve" smooth="yes"></point>
      <point x="1021" y="914"></point>
      <point x="869" y="1106"></point>
      <point x="606" y="1106" type="curve" smooth="yes"></point>
      <point x="338" y="1106"></point>
      <point x="114" y="891"></point>
      <point x="114" y="538" type="curve" smooth="yes"></point>
      <point x="114" y="190"></point>
      <point x="339" y="-20"></point>
    </contour>
    <contour>
      <point x="883" y="577" type="curve"></point>
      <point x="947" y="627" type="line"></point>
      <point x="226" y="627" type="line"></point>
      <point x="283" y="585" type="line"></point>
      <point x="293" y="804"></point>
      <point x="413" y="980"></point>
      <point x="610" y="980" type="curve" smooth="yes"></point>
      <point x="794" y="980"></point>
      <point x="885" y="819"></point>
    </contour>
    <contour>
      <point x="905" y="53.8" type="move" smooth="yes"></point>
    </contour>
    <contour>
      <point x="618" y="0.5" type="move" smooth="yes"></point>
    </contour>
    <contour>
      <point x="585" y="1082.9" type="move" smooth="yes"></point>
    </contour>
  </outline>
</glyph>
<glyph name="f" format="1">
  <advance width="807"></advance>
  <unicode hex="0066"></unicode>
  <outline>
    <contour>
      <point x="291" y="0" type="line"></point>
      <point x="455" y="0" type="line"></point>
      <point x="455" y="1020" type="line"></point>
      <point x="423" y="980" type="line"></point>
      <point x="730" y="980" type="line"></point>
      <point x="730" y="1082" type="line"></point>
      <point x="419" y="1082" type="line"></point>
      <point x="455" y="1045" type="line"></point>
      <point x="455" y="1162" type="line" smooth="yes"></point>
      <point x="455" y="1367"></point>
      <point x="531" y="1392"></point>
      <point x="632" y="1392" type="curve" smooth="yes"></point>
      <point x="678" y="1392"></point>
      <point x="724" y="1384"></point>
      <point x="734" y="1382" type="curve"></point>
      <point x="746" y="1500" type="line"></point>
      <point x="725" y="1504"></point>
      <point x="676" y="1517"></point>
      <point x="602" y="1517" type="curve" smooth="yes"></point>
      <point x="417" y="1517"></point>
      <point x="291" y="1427"></point>
      <point x="291" y="1152" type="curve" smooth="yes"></point>
      <point x="291" y="1047" type="line"></point>
      <point x="331" y="1082" type="line"></point>
      <point x="102" y="1066" type="line"></point>
      <point x="97" y="980" type="line"></point>
      <point x="331" y="980" type="line"></point>
      <point x="291" y="1019" type="line"></point>
    </contour>
  </outline>
</glyph>
<glyph name="g" format="1">
  <advance width="1210"></advance>
  <unicode hex="0067"></unicode>
  <outline>
    <contour>
      <point x="886" y="57" type="line" smooth="yes"></point>
      <point x="886" y="-221"></point>
      <point x="785" y="-304"></point>
      <point x="563" y="-304" type="curve" smooth="yes"></point>
      <point x="427" y="-304"></point>
      <point x="347" y="-277"></point>
      <point x="254" y="-247" type="curve"></point>
      <point x="239" y="-380" type="line"></point>
      <point x="332" y="-410"></point>
      <point x="442" y="-437"></point>
      <point x="563" y="-437" type="curve" smooth="yes"></point>
      <point x="921" y="-437"></point>
      <point x="1042" y="-258"></point>
      <point x="1042" y="105" type="curve" smooth="yes"></point>
      <point x="1042" y="1082" type="line"></point>
      <point x="906" y="1082" type="line"></point>
      <point x="884" y="833" type="line"></point>
      <point x="909" y="854" type="line"></point>
      <point x="836" y="1006"></point>
      <point x="734" y="1106"></point>
      <point x="553" y="1106" type="curve" smooth="yes"></point>
      <point x="260" y="1106"></point>
      <point x="121" y="877"></point>
      <point x="121" y="538" type="curve" smooth="yes"></point>
      <point x="121" y="209"></point>
      <point x="273" y="-7"></point>
      <point x="556" y="-7" type="curve" smooth="yes"></point>
      <point x="745" y="-7"></point>
      <point x="845" y="95"></point>
      <point x="905" y="232" type="curve"></point>
      <point x="886" y="245" type="line"></point>
    </contour>
    <contour>
      <point x="582" y="123" type="curve" smooth="yes"></point>
      <point x="372" y="123"></point>
      <point x="291" y="277"></point>
      <point x="291" y="540" type="curve" smooth="yes"></point>
      <point x="291" y="790"></point>
      <point x="358" y="980"></point>
      <point x="572" y="980" type="curve" smooth="yes"></point>
      <point x="799" y="980"></point>
      <point x="884" y="808"></point>
      <point x="885" y="558" type="curve"></point>
      <point x="885" y="275"></point>
      <point x="783" y="123"></point>
    </contour>
    <contour>
      <point x="562" y="1094.4" type="move" smooth="yes"></point>
    </contour>
    <contour>
      <point x="560" y="-475.9" type="move" smooth="yes"></point>
    </contour>
  </outline>
</glyph>
<glyph name="h" format="1">
  <advance width="1147"></advance>
  <unicode hex="0068"></unicode>
  <outline>
    <contour>
      <point x="134" y="0" type="line"></point>
      <point x="297" y="0" type="line"></point>
      <point x="297" y="593" type="line" smooth="yes"></point>
      <point x="297" y="782"></point>
      <point x="373" y="980"></point>
      <point x="627" y="980" type="curve" smooth="yes"></point>
      <point x="789" y="980"></point>
      <point x="849" y="873"></point>
      <point x="849" y="664" type="curve" smooth="yes"></point>
      <point x="849" y="0" type="line"></point>
      <point x="1015" y="0" type="line"></point>
      <point x="1015" y="670" type="line" smooth="yes"></point>
      <point x="1015" y="948"></point>
      <point x="886" y="1106"></point>
      <point x="654" y="1106" type="curve" smooth="yes"></point>
      <point x="492" y="1106"></point>
      <point x="345" y="1036"></point>
      <point x="270" y="855" type="curve"></point>
      <point x="290" y="837" type="line"></point>
      <point x="298" y="1146" type="line"></point>
      <point x="298" y="1560" type="line"></point>
      <point x="134" y="1547" type="line"></point>
    </contour>
    <contour>
      <point x="643" y="1383.75" type="move" smooth="yes"></point>
    </contour>
    <contour>
      <point x="216" y="1284.33" type="move" smooth="yes"></point>
    </contour>
  </outline>
</glyph>
<glyph name="i" format="1">
  <advance width="529"></advance>
  <unicode hex="0069"></unicode>
  <outline>
    <contour>
      <point x="285" y="1496" type="curve" smooth="yes"></point>
      <point x="348" y="1496"></point>
      <point x="373" y="1459"></point>
      <point x="373" y="1395" type="curve" smooth="yes"></point>
      <point x="373" y="1330"></point>
      <point x="348" y="1292"></point>
      <point x="285" y="1292" type="curve" smooth="yes"></point>
      <point x="221" y="1292"></point>
      <point x="197" y="1330"></point>
      <point x="197" y="1395" type="curve" smooth="yes"></point>
      <point x="197" y="1459"></point>
      <point x="221" y="1496"></point>
    </contour>
    <contour>
      <point x="203" y="0" type="line"></point>
      <point x="367" y="0" type="line"></point>
      <point x="367" y="1082" type="line"></point>
      <point x="203" y="1082" type="line"></point>
    </contour>
    <contour>
      <point x="285" y="0" type="move" smooth="yes"></point>
    </contour>
  </outline>
</glyph>
<glyph name="j" format="1">
  <advance width="829"></advance>
  <unicode hex="006A"></unicode>
  <outline>
    <contour>
      <point x="556" y="1496" type="curve" smooth="yes"></point>
      <point x="619" y="1496"></point>
      <point x="644" y="1459"></point>
      <point x="644" y="1395" type="curve" smooth="yes"></point>
      <point x="644" y="1330"></point>
      <point x="619" y="1292"></point>
      <point x="556" y="1292" type="curve" smooth="yes"></point>
      <point x="492" y="1292"></point>
      <point x="468" y="1330"></point>
      <point x="468" y="1395" type="curve" smooth="yes"></point>
      <point x="468" y="1459"></point>
      <point x="492" y="1496"></point>
    </contour>
    <contour>
      <point x="279" y="-378" type="line"></point>
      <point x="338" y="-371" type="line" smooth="yes"></point>
      <point x="558" y="-344"></point>
      <point x="638" y="-269"></point>
      <point x="638" y="-10" type="curve" smooth="yes"></point>
      <point x="638" y="1082" type="line"></point>
      <point x="474" y="1082" type="line"></point>
      <point x="474" y="21" type="line" smooth="yes"></point>
      <point x="474" y="-169"></point>
      <point x="471" y="-205"></point>
      <point x="322" y="-235" type="curve"></point>
      <point x="260" y="-247" type="line"></point>
    </contour>
  </outline>
</glyph>
<glyph name="k" format="1">
  <advance width="1121"></advance>
  <unicode hex="006B"></unicode>
  <outline>
    <contour>
      <point x="165" y="0" type="line"></point>
      <point x="329" y="0" type="line"></point>
      <point x="329" y="438" type="line"></point>
      <point x="300" y="372" type="line"></point>
      <point x="484" y="529" type="line"></point>
      <point x="432" y="538" type="line"></point>
      <point x="878" y="0" type="line"></point>
      <point x="1073" y="0" type="line"></point>
      <point x="545" y="621" type="line"></point>
      <point x="541" y="556" type="line"></point>
      <point x="1035" y="1082" type="line"></point>
      <point x="834" y="1082" type="line"></point>
      <point x="288" y="499" type="line"></point>
      <point x="322" y="486" type="line"></point>
      <point x="329" y="757" type="line"></point>
      <point x="329" y="1560" type="line"></point>
      <point x="165" y="1547" type="line"></point>
    </contour>
    <contour>
      <point x="584" y="0" type="move" smooth="yes"></point>
    </contour>
  </outline>
</glyph>
<glyph name="l" format="1">
  <advance width="617"></advance>
  <unicode hex="006C"></unicode>
  <outline>
    <contour>
      <point x="484" y="-8" type="curve" smooth="yes"></point>
      <point x="543" y="-8" type="line"></point>
      <point x="552" y="114" type="line"></point>
      <point x="523" y="116" type="line"></point>
      <point x="350" y="123"></point>
      <point x="317" y="138"></point>
      <point x="317" y="310" type="curve" smooth="yes"></point>
      <point x="317" y="1560" type="line"></point>
      <point x="153" y="1548" type="line"></point>
      <point x="153" y="311" type="line" smooth="yes"></point>
      <point x="153" y="45"></point>
      <point x="268" y="-8"></point>
    </contour>
    <contour>
      <point x="319" y="0.2" type="move" smooth="yes"></point>
    </contour>
    <contour>
      <point x="613" y="1083.62" type="move" smooth="yes"></point>
    </contour>
    <contour>
      <point x="327" y="1496.7" type="move" smooth="yes"></point>
    </contour>
    <contour>
      <point x="233" y="918.6" type="move" smooth="yes"></point>
    </contour>
  </outline>
</glyph>
<glyph name="m" format="1">
  <advance width="1765"></advance>
  <unicode hex="006D"></unicode>
  <outline>
    <contour>
      <point x="127" y="0" type="line"></point>
      <point x="291" y="0" type="line"></point>
      <point x="291" y="639" type="line"></point>
      <point x="317" y="830"></point>
      <point x="416" y="980"></point>
      <point x="586" y="980" type="curve" smooth="yes"></point>
      <point x="738" y="980"></point>
      <point x="797" y="864"></point>
      <point x="797" y="609" type="curve" smooth="yes"></point>
      <point x="797" y="0" type="line"></point>
      <point x="961" y="0" type="line"></point>
      <point x="961" y="593" type="line" smooth="yes"></point>
      <point x="961" y="870"></point>
      <point x="1118" y="980"></point>
      <point x="1262" y="980" type="curve" smooth="yes"></point>
      <point x="1441" y="980"></point>
      <point x="1467" y="801"></point>
      <point x="1467" y="646" type="curve" smooth="yes"></point>
      <point x="1467" y="0" type="line"></point>
      <point x="1631" y="0" type="line"></point>
      <point x="1631" y="699" type="line" smooth="yes"></point>
      <point x="1631" y="965"></point>
      <point x="1508" y="1106"></point>
      <point x="1288" y="1106" type="curve" smooth="yes"></point>
      <point x="1125" y="1106"></point>
      <point x="981" y="1018"></point>
      <point x="908" y="858" type="curve"></point>
      <point x="933" y="862" type="line"></point>
      <point x="884" y="1000"></point>
      <point x="795" y="1106"></point>
      <point x="613" y="1106" type="curve" smooth="yes"></point>
      <point x="467" y="1106"></point>
      <point x="343" y="1023"></point>
      <point x="274" y="860" type="curve"></point>
      <point x="292" y="850" type="line"></point>
      <point x="269" y="1082" type="line"></point>
      <point x="127" y="1082" type="line"></point>
    </contour>
    <contour>
      <point x="907" y="1082.4" type="move" smooth="yes"></point>
    </contour>
  </outline>
</glyph>
<glyph name="n" format="1">
  <advance width="1147"></advance>
  <unicode hex="006E"></unicode>
  <outline>
    <contour>
      <point x="138" y="0" type="line"></point>
      <point x="302" y="0" type="line"></point>
      <point x="302" y="581" type="line" smooth="yes"></point>
      <point x="302" y="778"></point>
      <point x="397" y="980"></point>
      <point x="633" y="980" type="curve" smooth="yes"></point>
      <point x="803" y="980"></point>
      <point x="852" y="851"></point>
      <point x="852" y="669" type="curve" smooth="yes"></point>
      <point x="852" y="0" type="line"></point>
      <point x="1016" y="0" type="line"></point>
      <point x="1016" y="650" type="line" smooth="yes"></point>
      <point x="1016" y="945"></point>
      <point x="906" y="1106"></point>
      <point x="662" y="1106" type="curve" smooth="yes"></point>
      <point x="479" y="1106"></point>
      <point x="352" y="1020"></point>
      <point x="277" y="856" type="curve"></point>
      <point x="305" y="845" type="line"></point>
      <point x="280" y="1082" type="line"></point>
      <point x="138" y="1082" type="line"></point>
    </contour>
    <contour>
      <point x="646" y="1109.05" type="move" smooth="yes"></point>
    </contour>
    <contour>
      <point x="572" y="0" type="move" smooth="yes"></point>
    </contour>
    <contour>
      <point x="108" y="1084.45" type="move" smooth="yes"></point>
    </contour>
  </outline>
</glyph>
<glyph name="o" format="1">
  <advance width="1210"></advance>
  <unicode hex="006F"></unicode>
  <outline>
    <contour>
      <point x="605" y="106" type="curve" smooth="yes"></point>
      <point x="384" y="106"></point>
      <point x="291" y="294"></point>
      <point x="291" y="541" type="curve" smooth="yes"></point>
      <point x="291" y="794"></point>
      <point x="385" y="980"></point>
      <point x="605" y="980" type="curve" smooth="yes"></point>
      <point x="831" y="980"></point>
      <point x="920" y="793"></point>
      <point x="920" y="540" type="curve" smooth="yes"></point>
      <point x="920" y="293"></point>
      <point x="832" y="106"></point>
    </contour>
    <contour>
      <point x="605" y="-20" type="curve" smooth="yes"></point>
      <point x="909" y="-20"></point>
      <point x="1090" y="206"></point>
      <point x="1090" y="542" type="curve" smooth="yes"></point>
      <point x="1090" y="886"></point>
      <point x="924" y="1106"></point>
      <point x="605" y="1106" type="curve" smooth="yes"></point>
      <point x="289" y="1106"></point>
      <point x="121" y="886"></point>
      <point x="121" y="542" type="curve" smooth="yes"></point>
      <point x="121" y="206"></point>
      <point x="293" y="-20"></point>
    </contour>
    <contour>
      <point x="605" y="0.5" type="move" smooth="yes"></point>
    </contour>
    <contour>
      <point x="604" y="1082.9" type="move" smooth="yes"></point>
    </contour>
  </outline>
</glyph>
<glyph name="p" format="1">
  <advance width="1198"></advance>
  <unicode hex="0070"></unicode>
  <outline>
    <contour>
      <point x="159" y="-416" type="line"></point>
      <point x="323" y="-416" type="line"></point>
      <point x="323" y="-68" type="line"></point>
      <point x="315" y="236" type="line"></point>
      <point x="296" y="228" type="line"></point>
      <point x="349" y="92"></point>
      <point x="455" y="-20"></point>
      <point x="646" y="-20" type="curve" smooth="yes"></point>
      <point x="929" y="-20"></point>
      <point x="1081" y="210"></point>
      <point x="1081" y="539" type="curve" smooth="yes"></point>
      <point x="1081" y="878"></point>
      <point x="945" y="1106"></point>
      <point x="652" y="1106" type="curve" smooth="yes"></point>
      <point x="481" y="1106"></point>
      <point x="365" y="1013"></point>
      <point x="301" y="857" type="curve"></point>
      <point x="316" y="852" type="line"></point>
      <point x="295" y="1082" type="line"></point>
      <point x="159" y="1082" type="line"></point>
    </contour>
    <contour>
      <point x="620" y="106" type="curve" smooth="yes"></point>
      <point x="419" y="106"></point>
      <point x="316" y="275"></point>
      <point x="316" y="558" type="curve"></point>
      <point x="317" y="808"></point>
      <point x="406" y="980"></point>
      <point x="633" y="980" type="curve" smooth="yes"></point>
      <point x="847" y="980"></point>
      <point x="911" y="791"></point>
      <point x="911" y="541" type="curve" smooth="yes"></point>
      <point x="911" y="277"></point>
      <point x="830" y="106"></point>
    </contour>
    <contour>
      <point x="657" y="1094" type="move" smooth="yes"></point>
    </contour>
  </outline>
</glyph>
<glyph name="q" format="1">
  <advance width="1147"></advance>
  <unicode hex="0071"></unicode>
  <outline>
    <contour>
      <point x="835" y="-416" type="line"></point>
      <point x="999" y="-416" type="line"></point>
      <point x="999" y="1082" type="line"></point>
      <point x="863" y="1082" type="line"></point>
      <point x="844" y="841" type="line"></point>
      <point x="866" y="854" type="line"></point>
      <point x="798" y="1006"></point>
      <point x="703" y="1106"></point>
      <point x="522" y="1106" type="curve" smooth="yes"></point>
      <point x="229" y="1106"></point>
      <point x="95" y="878"></point>
      <point x="95" y="539" type="curve" smooth="yes"></point>
      <point x="95" y="210"></point>
      <point x="242" y="-20"></point>
      <point x="525" y="-20" type="curve" smooth="yes"></point>
      <point x="718" y="-20"></point>
      <point x="814" y="112"></point>
      <point x="862" y="259" type="curve"></point>
      <point x="845" y="268" type="line"></point>
      <point x="835" y="-68" type="line"></point>
    </contour>
    <contour>
      <point x="551" y="106" type="curve" smooth="yes"></point>
      <point x="341" y="106"></point>
      <point x="265" y="277"></point>
      <point x="265" y="541" type="curve" smooth="yes"></point>
      <point x="265" y="791"></point>
      <point x="327" y="980"></point>
      <point x="541" y="980" type="curve" smooth="yes"></point>
      <point x="768" y="980"></point>
      <point x="841" y="818"></point>
      <point x="842" y="558" type="curve"></point>
      <point x="842" y="275"></point>
      <point x="752" y="106"></point>
    </contour>
  </outline>
</glyph>
<glyph name="r" format="1">
  <advance width="706"></advance>
  <unicode hex="0072"></unicode>
  <outline>
    <contour>
      <point x="146" y="0" type="line"></point>
      <point x="310" y="0" type="line"></point>
      <point x="310" y="614" type="line" smooth="yes"></point>
      <point x="310" y="803"></point>
      <point x="419" y="959"></point>
      <point x="604" y="959" type="curve" smooth="yes"></point>
      <point x="626" y="959"></point>
      <point x="647" y="956"></point>
      <point x="672" y="951" type="curve"></point>
      <point x="685" y="1091" type="line"></point>
      <point x="662" y="1095"></point>
      <point x="641" y="1096"></point>
      <point x="611" y="1096" type="curve" smooth="yes"></point>
      <point x="473" y="1096"></point>
      <point x="360" y="1014"></point>
      <point x="275" y="819" type="curve"></point>
      <point x="300" y="808" type="line"></point>
      <point x="277" y="1082" type="line"></point>
      <point x="146" y="1082" type="line"></point>
    </contour>
    <contour>
      <point x="259" y="0" type="move" smooth="yes"></point>
    </contour>
    <contour>
      <point x="439" y="1082.4" type="move" smooth="yes"></point>
    </contour>
  </outline>
</glyph>
<glyph name="s" format="1">
  <advance width="986"></advance>
  <unicode hex="0073"></unicode>
  <outline>
    <contour>
      <point x="514" y="982" type="curve" smooth="yes"></point>
      <point x="670" y="982"></point>
      <point x="727" y="890"></point>
      <point x="744" y="812" type="curve"></point>
      <point x="866" y="852" type="line"></point>
      <point x="850" y="981"></point>
      <point x="743" y="1106"></point>
      <point x="503" y="1106" type="curve" smooth="yes"></point>
      <point x="260" y="1106"></point>
      <point x="110" y="996"></point>
      <point x="110" y="818" type="curve" smooth="yes"></point>
      <point x="110" y="695"></point>
      <point x="144" y="602"></point>
      <point x="477" y="500" type="curve"></point>
      <point x="690" y="439"></point>
      <point x="730" y="380"></point>
      <point x="730" y="283" type="curve" smooth="yes"></point>
      <point x="730" y="168"></point>
      <point x="635" y="102"></point>
      <point x="499" y="102" type="curve" smooth="yes"></point>
      <point x="373" y="102"></point>
      <point x="257" y="153"></point>
      <point x="205" y="283" type="curve"></point>
      <point x="76" y="220" type="line"></point>
      <point x="141" y="64"></point>
      <point x="292" y="-20"></point>
      <point x="497" y="-20" type="curve" smooth="yes"></point>
      <point x="700" y="-20"></point>
      <point x="882" y="80"></point>
      <point x="882" y="291" type="curve" smooth="yes"></point>
      <point x="882" y="424"></point>
      <point x="857" y="524"></point>
      <point x="520" y="634" type="curve" smooth="yes"></point>
      <point x="324" y="698"></point>
      <point x="267" y="729"></point>
      <point x="267" y="819" type="curve" smooth="yes"></point>
      <point x="267" y="920"></point>
      <point x="340" y="982"></point>
    </contour>
    <contour>
      <point x="471" y="1" type="move" smooth="yes"></point>
    </contour>
    <contour>
      <point x="467" y="1083" type="move" smooth="yes"></point>
    </contour>
  </outline>
</glyph>
<glyph name="t" format="1">
  <advance width="852"></advance>
  <unicode hex="0074"></unicode>
  <outline>
    <contour>
      <point x="647" y="-8" type="curve" smooth="yes"></point>
      <point x="716" y="-8" type="line"></point>
      <point x="724" y="109" type="line"></point>
      <point x="640" y="113" type="line"></point>
      <point x="475" y="113"></point>
      <point x="476" y="150"></point>
      <point x="476" y="325" type="curve" smooth="yes"></point>
      <point x="476" y="1020" type="line"></point>
      <point x="443" y="980" type="line"></point>
      <point x="714" y="980" type="line"></point>
      <point x="714" y="1082" type="line"></point>
      <point x="443" y="1082" type="line"></point>
      <point x="476" y="1046" type="line"></point>
      <point x="476" y="1382" type="line"></point>
      <point x="343" y="1372" type="line"></point>
      <point x="313" y="1051" type="line"></point>
      <point x="346" y="1082" type="line"></point>
      <point x="144" y="1073" type="line"></point>
      <point x="140" y="980" type="line"></point>
      <point x="342" y="980" type="line"></point>
      <point x="312" y="1019" type="line"></point>
      <point x="312" y="325" type="line" smooth="yes"></point>
      <point x="312" y="69"></point>
      <point x="348" y="-8"></point>
    </contour>
    <contour>
      <point x="549" y="0.2" type="move" smooth="yes"></point>
    </contour>
    <contour>
      <point x="388" y="631.6" type="move" smooth="yes"></point>
    </contour>
    <contour>
      <point x="402" y="1383.95" type="move" smooth="yes"></point>
    </contour>
  </outline>
</glyph>
<glyph name="u" format="1">
  <advance width="1147"></advance>
  <unicode hex="0075"></unicode>
  <outline>
    <contour>
      <point x="1008" y="1082" type="line"></point>
      <point x="844" y="1082" type="line"></point>
      <point x="844" y="475" type="line" smooth="yes"></point>
      <point x="844" y="268"></point>
      <point x="764" y="106"></point>
      <point x="527" y="106" type="curve" smooth="yes"></point>
      <point x="357" y="106"></point>
      <point x="291" y="221"></point>
      <point x="291" y="403" type="curve" smooth="yes"></point>
      <point x="291" y="1082" type="line"></point>
      <point x="127" y="1082" type="line"></point>
      <point x="127" y="422" type="line" smooth="yes"></point>
      <point x="127" y="127"></point>
      <point x="263" y="-20"></point>
      <point x="507" y="-20" type="curve" smooth="yes"></point>
      <point x="720" y="-20"></point>
      <point x="802" y="76"></point>
      <point x="869" y="206" type="curve"></point>
      <point x="844" y="217" type="line"></point>
      <point x="866" y="0" type="line"></point>
      <point x="1008" y="0" type="line"></point>
    </contour>
    <contour>
      <point x="940" y="0.5" type="move" smooth="yes"></point>
    </contour>
    <contour>
      <point x="533" y="0.5" type="move" smooth="yes"></point>
    </contour>
    <contour>
      <point x="590" y="1082.9" type="move" smooth="yes"></point>
    </contour>
  </outline>
</glyph>
<glyph name="v" format="1">
  <advance width="1059"></advance>
  <unicode hex="0076"></unicode>
  <outline>
    <contour>
      <point x="438" y="0" type="line"></point>
      <point x="605" y="0" type="line"></point>
      <point x="994" y="1082" type="line"></point>
      <point x="828" y="1082" type="line"></point>
      <point x="646" y="550" type="line"></point>
      <point x="502" y="136" type="line"></point>
      <point x="545" y="136" type="line"></point>
      <point x="396" y="551" type="line"></point>
      <point x="212" y="1082" type="line"></point>
      <point x="44" y="1082" type="line"></point>
    </contour>
  </outline>
</glyph>
<glyph name="w" format="1">
  <advance width="1500"></advance>
  <unicode hex="0077"></unicode>
  <outline>
    <contour>
      <point x="296" y="0" type="line"></point>
      <point x="443" y="0" type="line"></point>
      <point x="744" y="989" type="line"></point>
      <point x="712" y="989" type="line"></point>
      <point x="1019" y="0" type="line"></point>
      <point x="1166" y="0" type="line"></point>
      <point x="1449" y="1082" type="line"></point>
      <point x="1297" y="1082" type="line"></point>
      <point x="1074" y="150" type="line"></point>
      <point x="1108" y="150" type="line"></point>
      <point x="812" y="1082" type="line"></point>
      <point x="635" y="1082" type="line"></point>
      <point x="359" y="149" type="line"></point>
      <point x="395" y="149" type="line"></point>
      <point x="151" y="1082" type="line"></point>
      <point x="-5" y="1082" type="line"></point>
    </contour>
    <contour>
      <point x="726" y="1082.4" type="move" smooth="yes"></point>
    </contour>
  </outline>
</glyph>
<glyph name="x" format="1">
  <advance width="1060"></advance>
  <unicode hex="0078"></unicode>
  <outline>
    <contour>
      <point x="812" y="0" type="line"></point>
      <point x="997" y="0" type="line"></point>
      <point x="270" y="1082" type="line"></point>
      <point x="85" y="1082" type="line"></point>
    </contour>
    <contour>
      <point x="613" y="531" type="line"></point>
      <point x="994" y="1082" type="line"></point>
      <point x="826" y="1082" type="line"></point>
      <point x="533" y="646" type="line"></point>
      <point x="449" y="557" type="line"></point>
      <point x="63" y="0" type="line"></point>
      <point x="230" y="0" type="line"></point>
      <point x="524" y="436" type="line"></point>
    </contour>
  </outline>
</glyph>
<glyph name="y" format="1">
  <advance width="1060"></advance>
  <unicode hex="0079"></unicode>
  <outline>
    <contour>
      <point x="441" y="-410" type="line"></point>
      <point x="1004" y="1082" type="line"></point>
      <point x="842" y="1082" type="line"></point>
      <point x="511" y="156" type="line"></point>
      <point x="552" y="159" type="line"></point>
      <point x="193" y="1082" type="line"></point>
      <point x="24" y="1082" type="line"></point>
      <point x="470" y="-20" type="line"></point>
      <point x="482" y="123" type="line"></point>
      <point x="298" y="-377" type="line"></point>
    </contour>
    <contour>
      <point x="520" y="1092.35" type="move" smooth="yes"></point>
    </contour>
  </outline>
</glyph>
<glyph name="z" format="1">
  <advance width="971"></advance>
  <unicode hex="007A"></unicode>
  <outline>
    <contour>
      <point x="76" y="0" type="line"></point>
      <point x="896" y="0" type="line"></point>
      <point x="888" y="127" type="line"></point>
      <point x="207" y="127" type="line"></point>
      <point x="230" y="89" type="line"></point>
      <point x="887" y="966" type="line"></point>
      <point x="887" y="1082" type="line"></point>
      <point x="97" y="1082" type="line"></point>
      <point x="103" y="960" type="line"></point>
      <point x="755" y="960" type="line"></point>
      <point x="742" y="997" type="line"></point>
      <point x="76" y="110" type="line"></point>
    </contour>
    <contour>
      <point x="478" y="0" type="move" smooth="yes"></point>
    </contour>
    <contour>
      <point x="481" y="1082.4" type="move" smooth="yes"></point>
    </contour>
  </outline>
</glyph>
<glyph name="braceleft" format="1">
  <advance width="706"></advance>
  <unicode hex="007B"></unicode>
  <outline>
    <contour>
      <point x="660" y="-154" type="line"></point>
      <point x="426" y="-154"></point>
      <point x="326" y="-32"></point>
      <point x="326" y="192" type="curve" smooth="yes"></point>
      <point x="326" y="322" type="line" smooth="yes"></point>
      <point x="326" y="497"></point>
      <point x="316" y="610"></point>
      <point x="127" y="612" type="curve"></point>
      <point x="127" y="761" type="line"></point>
      <point x="314" y="761"></point>
      <point x="326" y="876"></point>
      <point x="326" y="1049" type="curve" smooth="yes"></point>
      <point x="326" y="1224" type="line" smooth="yes"></point>
      <point x="326" y="1423"></point>
      <point x="447" y="1533"></point>
      <point x="660" y="1534" type="curve"></point>
      <point x="660" y="1409" type="line"></point>
      <point x="518" y="1407"></point>
      <point x="502" y="1348"></point>
      <point x="502" y="1172" type="curve" smooth="yes"></point>
      <point x="502" y="970" type="line"></point>
      <point x="501" y="817"></point>
      <point x="456" y="735"></point>
      <point x="324" y="682" type="curve"></point>
      <point x="455" y="644"></point>
      <point x="502" y="566"></point>
      <point x="502" y="407" type="curve" smooth="yes"></point>
      <point x="502" y="205" type="line" smooth="yes"></point>
      <point x="502" y="36"></point>
      <point x="516" y="-30"></point>
      <point x="660" y="-32" type="curve"></point>
    </contour>
  </outline>
</glyph>
<glyph name="bar" format="1">
  <advance width="645"></advance>
  <unicode hex="007C"></unicode>
  <outline>
    <contour>
      <point x="235" y="-216" type="line"></point>
      <point x="235" y="1594" type="line"></point>
      <point x="381" y="1594" type="line"></point>
      <point x="381" y="-216" type="line"></point>
    </contour>
  </outline>
</glyph>
<glyph name="braceright" format="1">
  <advance width="783"></advance>
  <unicode hex="007D"></unicode>
  <outline>
    <contour>
      <point x="95" y="1534" type="line"></point>
      <point x="329" y="1534"></point>
      <point x="429" y="1412"></point>
      <point x="429" y="1188" type="curve" smooth="yes"></point>
      <point x="429" y="1059" type="line" smooth="yes"></point>
      <point x="429" y="883"></point>
      <point x="439" y="771"></point>
      <point x="628" y="769" type="curve"></point>
      <point x="628" y="619" type="line"></point>
      <point x="441" y="619"></point>
      <point x="429" y="504"></point>
      <point x="429" y="331" type="curve" smooth="yes"></point>
      <point x="429" y="157" type="line" smooth="yes"></point>
      <point x="429" y="-43"></point>
      <point x="308" y="-153"></point>
      <point x="95" y="-154" type="curve"></point>
      <point x="95" y="-29" type="line"></point>
      <point x="237" y="-27"></point>
      <point x="253" y="33"></point>
      <point x="253" y="208" type="curve" smooth="yes"></point>
      <point x="253" y="410" type="line"></point>
      <point x="254" y="564"></point>
      <point x="299" y="646"></point>
      <point x="431" y="698" type="curve"></point>
      <point x="300" y="736"></point>
      <point x="253" y="815"></point>
      <point x="253" y="973" type="curve" smooth="yes"></point>
      <point x="253" y="1175" type="line" smooth="yes"></point>
      <point x="253" y="1345"></point>
      <point x="239" y="1410"></point>
      <point x="95" y="1412" type="curve"></point>
    </contour>
  </outline>
</glyph>
<glyph name="asciitilde" format="1">
  <advance width="1210"></advance>
  <unicode hex="007E"></unicode>
  <outline>
    <contour>
      <point x="149" y="491" type="curve"></point>
      <point x="108" y="587" type="line"></point>
      <point x="153" y="698"></point>
      <point x="239" y="785"></point>
      <point x="367" y="785" type="curve" smooth="yes"></point>
      <point x="446" y="785"></point>
      <point x="503" y="762"></point>
      <point x="603" y="717" type="curve"></point>
      <point x="698" y="676"></point>
      <point x="777" y="636"></point>
      <point x="837" y="636" type="curve" smooth="yes"></point>
      <point x="919" y="636"></point>
      <point x="999" y="709"></point>
      <point x="1037" y="795" type="curve"></point>
      <point x="1084" y="706" type="line"></point>
      <point x="1035" y="582"></point>
      <point x="958" y="505"></point>
      <point x="835" y="505" type="curve" smooth="yes"></point>
      <point x="766" y="505"></point>
      <point x="694" y="534"></point>
      <point x="613" y="571" type="curve" smooth="yes"></point>
      <point x="509" y="618"></point>
      <point x="434" y="653"></point>
      <point x="364" y="653" type="curve" smooth="yes"></point>
      <point x="276" y="653"></point>
      <point x="195" y="579"></point>
    </contour>
  </outline>
</glyph>
<glyph name="cent" format="1">
  <advance width="627"></advance>
  <unicode hex="00A2"></unicode>
  <outline>
    <component base="c"></component>
    <contour>
      <point x="403" y="1391" type="line"></point>
      <point x="292" y="1391" type="line"></point>
      <point x="239" y="1042" type="line"></point>
      <point x="403" y="1042" type="line"></point>
    </contour>
    <contour>
      <point x="222" y="-310" type="line"></point>
      <point x="336" y="-310" type="line"></point>
      <point x="386" y="62" type="line"></point>
      <point x="222" y="62" type="line"></point>
    </contour>
  </outline>
</glyph>
<glyph name="sterling" format="1">
  <advance width="1060"></advance>
  <unicode hex="00A3"></unicode>
  <outline>
    <contour>
      <point x="56" y="0" type="line"></point>
      <point x="44" y="115" type="line"></point>
      <point x="216" y="132" type="line"></point>
      <point x="216" y="683" type="line"></point>
      <point x="44" y="683" type="line"></point>
      <point x="44" y="806" type="line"></point>
      <point x="216" y="806" type="line"></point>
      <point x="216" y="961" type="line" smooth="yes"></point>
      <point x="216" y="1224"></point>
      <point x="281" y="1517"></point>
      <point x="634" y="1517" type="curve" smooth="yes"></point>
      <point x="778" y="1517"></point>
      <point x="890" y="1462"></point>
      <point x="975" y="1388" type="curve"></point>
      <point x="907" y="1270" type="line"></point>
      <point x="821" y="1338"></point>
      <point x="736" y="1375"></point>
      <point x="634" y="1375" type="curve" smooth="yes"></point>
      <point x="433" y="1375"></point>
      <point x="392" y="1220"></point>
      <point x="392" y="990" type="curve" smooth="yes"></point>
      <point x="392" y="806" type="line"></point>
      <point x="775" y="806" type="line"></point>
      <point x="775" y="683" type="line"></point>
      <point x="392" y="683" type="line"></point>
      <point x="392" y="134" type="line"></point>
      <point x="989" y="134" type="line"></point>
      <point x="976" y="0" type="line"></point>
    </contour>
  </outline>
</glyph>
<glyph name="currency" format="1">
  <advance width="1166"></advance>
  <unicode hex="00A4"></unicode>
  <outline>
    <contour>
      <point x="585" y="398" type="curve" smooth="yes"></point>
      <point x="398" y="398"></point>
      <point x="280" y="545"></point>
      <point x="280" y="719" type="curve" smooth="yes"></point>
      <point x="280" y="892"></point>
      <point x="398" y="1041"></point>
      <point x="585" y="1041" type="curve" smooth="yes"></point>
      <point x="773" y="1041"></point>
      <point x="891" y="892"></point>
      <point x="891" y="719" type="curve" smooth="yes"></point>
      <point x="891" y="546"></point>
      <point x="774" y="398"></point>
    </contour>
    <contour>
      <point x="1025" y="225" type="line"></point>
      <point x="1085" y="292" type="line"></point>
      <point x="907" y="469" type="line"></point>
      <point x="960" y="540"></point>
      <point x="987" y="625"></point>
      <point x="987" y="719" type="curve" smooth="yes"></point>
      <point x="987" y="808"></point>
      <point x="960" y="893"></point>
      <point x="906" y="969" type="curve"></point>
      <point x="1086" y="1145" type="line"></point>
      <point x="1025" y="1212" type="line"></point>
      <point x="844" y="1038" type="line"></point>
      <point x="773" y="1098"></point>
      <point x="683" y="1133"></point>
      <point x="585" y="1133" type="curve" smooth="yes"></point>
      <point x="487" y="1133"></point>
      <point x="397" y="1100"></point>
      <point x="325" y="1039" type="curve"></point>
      <point x="146" y="1212" type="line"></point>
      <point x="82" y="1148" type="line"></point>
      <point x="264" y="969" type="line"></point>
      <point x="210" y="896"></point>
      <point x="183" y="810"></point>
      <point x="183" y="719" type="curve" smooth="yes"></point>
      <point x="183" y="627"></point>
      <point x="210" y="542"></point>
      <point x="264" y="469" type="curve"></point>
      <point x="83" y="293" type="line"></point>
      <point x="146" y="226" type="line"></point>
      <point x="326" y="400" type="line"></point>
      <point x="398" y="339"></point>
      <point x="485" y="307"></point>
      <point x="585" y="307" type="curve" smooth="yes"></point>
      <point x="684" y="307"></point>
      <point x="773" y="340"></point>
      <point x="844" y="399" type="curve"></point>
    </contour>
  </outline>
</glyph>
<glyph name="yen" format="1">
  <advance width="1060"></advance>
  <unicode hex="00A5"></unicode>
  <outline>
    <component base="Y"></component>
    <contour>
      <point x="936" y="291" type="line"></point>
      <point x="936" y="398" type="line"></point>
      <point x="573" y="398" type="line"></point>
      <point x="573" y="589" type="line"></point>
      <point x="935" y="589" type="line"></point>
      <point x="935" y="696" type="line"></point>
      <point x="129" y="696" type="line"></point>
      <point x="129" y="589" type="line"></point>
      <point x="509" y="589" type="line"></point>
      <point x="509" y="398" type="line"></point>
      <point x="127" y="398" type="line"></point>
      <point x="127" y="291" type="line"></point>
    </contour>
  </outline>
</glyph>
<glyph name="brokenbar" format="1">
  <advance width="124"></advance>
  <unicode hex="00A6"></unicode>
  <outline>
    <contour>
      <point x="0" y="825" type="line"></point>
      <point x="0" y="1584" type="line"></point>
      <point x="124" y="1584" type="line"></point>
      <point x="124" y="825" type="line"></point>
    </contour>
    <contour>
      <point x="0" y="-208" type="line"></point>
      <point x="0" y="554" type="line"></point>
      <point x="124" y="554" type="line"></point>
      <point x="124" y="-208" type="line"></point>
    </contour>
  </outline>
</glyph>
<glyph name="section" format="1">
  <advance width="1013"></advance>
  <unicode hex="00A7"></unicode>
  <outline>
    <contour>
      <point x="292" y="1226" type="curve" smooth="yes"></point>
      <point x="292" y="1326"></point>
      <point x="345" y="1388"></point>
      <point x="506" y="1388" type="curve" smooth="yes"></point>
      <point x="617" y="1388"></point>
      <point x="714" y="1347"></point>
      <point x="773" y="1317" type="curve"></point>
      <point x="812" y="1443" type="line"></point>
      <point x="721" y="1489"></point>
      <point x="615" y="1519"></point>
      <point x="489" y="1519" type="curve" smooth="yes"></point>
      <point x="262" y="1519"></point>
      <point x="139" y="1396"></point>
      <point x="139" y="1223" type="curve" smooth="yes"></point>
      <point x="139" y="1140"></point>
      <point x="158" y="1074"></point>
      <point x="223" y="1019" type="curve"></point>
      <point x="168" y="968"></point>
      <point x="139" y="895"></point>
      <point x="139" y="812" type="curve" smooth="yes"></point>
      <point x="139" y="680"></point>
      <point x="187" y="590"></point>
      <point x="388" y="524" type="curve" smooth="yes"></point>
      <point x="504" y="486" type="line" smooth="yes"></point>
      <point x="663" y="434"></point>
      <point x="707" y="380"></point>
      <point x="707" y="299" type="curve" smooth="yes"></point>
      <point x="707" y="175"></point>
      <point x="632" y="109"></point>
      <point x="505" y="109" type="curve" smooth="yes"></point>
      <point x="389" y="109"></point>
      <point x="285" y="142"></point>
      <point x="162" y="202" type="curve"></point>
      <point x="162" y="60" type="line"></point>
      <point x="265" y="10"></point>
      <point x="383" y="-20"></point>
      <point x="493" y="-20" type="curve" smooth="yes"></point>
      <point x="687" y="-20"></point>
      <point x="854" y="72"></point>
      <point x="854" y="296" type="curve" smooth="yes"></point>
      <point x="854" y="386"></point>
      <point x="838" y="451"></point>
      <point x="787" y="505" type="curve"></point>
      <point x="829" y="554"></point>
      <point x="854" y="621"></point>
      <point x="854" y="707" type="curve" smooth="yes"></point>
      <point x="854" y="874"></point>
      <point x="801" y="957"></point>
      <point x="564" y="1033" type="curve" smooth="yes"></point>
      <point x="459" y="1067" type="line" smooth="yes"></point>
      <point x="323" y="1111"></point>
      <point x="292" y="1137"></point>
    </contour>
    <contour>
      <point x="357" y="947" type="curve"></point>
      <point x="367" y="942"></point>
      <point x="377" y="938"></point>
      <point x="388" y="935" type="curve" smooth="yes"></point>
      <point x="504" y="897" type="line" smooth="yes"></point>
      <point x="663" y="845"></point>
      <point x="707" y="791"></point>
      <point x="707" y="710" type="curve" smooth="yes"></point>
      <point x="707" y="657"></point>
      <point x="693" y="613"></point>
      <point x="667" y="583" type="curve"></point>
      <point x="637" y="596"></point>
      <point x="603" y="609"></point>
      <point x="564" y="622" type="curve" smooth="yes"></point>
      <point x="459" y="655" type="line"></point>
      <point x="323" y="700"></point>
      <point x="292" y="726"></point>
      <point x="292" y="815" type="curve" smooth="yes"></point>
      <point x="292" y="875"></point>
      <point x="309" y="918"></point>
    </contour>
  </outline>
</glyph>
<glyph name="dieresis" format="1">
  <advance width="921"></advance>
  <unicode hex="00A8"></unicode>
  <unicode hex="0308"></unicode>
  <outline>
    <contour>
      <point x="353" y="1388" type="curve" smooth="yes"></point>
      <point x="405" y="1388"></point>
      <point x="446" y="1349"></point>
      <point x="446" y="1292" type="curve" smooth="yes"></point>
      <point x="446" y="1236"></point>
      <point x="405" y="1196"></point>
      <point x="353" y="1196" type="curve" smooth="yes"></point>
      <point x="299" y="1196"></point>
      <point x="260" y="1236"></point>
      <point x="260" y="1292" type="curve" smooth="yes"></point>
      <point x="260" y="1349"></point>
      <point x="299" y="1388"></point>
    </contour>
    <contour>
      <point x="808" y="1292" type="curve" smooth="yes"></point>
      <point x="808" y="1236"></point>
      <point x="768" y="1196"></point>
      <point x="715" y="1196" type="curve" smooth="yes"></point>
      <point x="662" y="1196"></point>
      <point x="623" y="1236"></point>
      <point x="623" y="1292" type="curve" smooth="yes"></point>
      <point x="623" y="1349"></point>
      <point x="662" y="1388"></point>
      <point x="715" y="1388" type="curve" smooth="yes"></point>
      <point x="768" y="1388"></point>
      <point x="808" y="1349"></point>
    </contour>
    <contour>
      <point x="541" y="1054.55" type="move" smooth="yes"></point>
    </contour>
  </outline>
</glyph>
<glyph name="copyright" format="1">
  <advance width="1659"></advance>
  <unicode hex="00A9"></unicode>
  <outline>
    <contour>
      <point x="747" y="-21" type="curve" smooth="yes"></point>
      <point x="1126" y="-21"></point>
      <point x="1506" y="242"></point>
      <point x="1506" y="749" type="curve" smooth="yes"></point>
      <point x="1506" y="1256"></point>
      <point x="1125" y="1519"></point>
      <point x="747" y="1519" type="curve" smooth="yes"></point>
      <point x="371" y="1519"></point>
      <point x="-6" y="1256"></point>
      <point x="-6" y="749" type="curve" smooth="yes"></point>
      <point x="-6" y="242"></point>
      <point x="371" y="-21"></point>
    </contour>
    <contour>
      <point x="747" y="65" type="curve" smooth="yes"></point>
      <point x="415" y="65"></point>
      <point x="97" y="303"></point>
      <point x="97" y="749" type="curve" smooth="yes"></point>
      <point x="97" y="1194"></point>
      <point x="415" y="1430"></point>
      <point x="747" y="1430" type="curve" smooth="yes"></point>
      <point x="1080" y="1430"></point>
      <point x="1402" y="1194"></point>
      <point x="1402" y="749" type="curve" smooth="yes"></point>
      <point x="1402" y="304"></point>
      <point x="1080" y="65"></point>
    </contour>
    <contour>
      <point x="767" y="240" type="curve" smooth="yes"></point>
      <point x="865" y="240"></point>
      <point x="962" y="269"></point>
      <point x="1048" y="325" type="curve"></point>
      <point x="1013" y="411" type="line"></point>
      <point x="929" y="358"></point>
      <point x="849" y="339"></point>
      <point x="771" y="339" type="curve" smooth="yes"></point>
      <point x="571" y="339"></point>
      <point x="413" y="496"></point>
      <point x="413" y="751" type="curve" smooth="yes"></point>
      <point x="413" y="986"></point>
      <point x="570" y="1152"></point>
      <point x="763" y="1152" type="curve" smooth="yes"></point>
      <point x="835" y="1152"></point>
      <point x="929" y="1126"></point>
      <point x="1002" y="1070" type="curve"></point>
      <point x="1045" y="1159" type="line"></point>
      <point x="957" y="1221"></point>
      <point x="859" y="1251"></point>
      <point x="759" y="1251" type="curve" smooth="yes"></point>
      <point x="504" y="1251"></point>
      <point x="292" y="1034"></point>
      <point x="292" y="746" type="curve" smooth="yes"></point>
      <point x="292" y="449"></point>
      <point x="509" y="240"></point>
    </contour>
  </outline>
</glyph>
<glyph name="guillemotleft" format="1">
  <advance width="1013"></advance>
  <unicode hex="00AB"></unicode>
  <outline>
    <contour>
      <point x="379" y="148" type="line"></point>
      <point x="536" y="148" type="line"></point>
      <point x="260" y="552" type="line"></point>
      <point x="544" y="953" type="line"></point>
      <point x="383" y="953" type="line"></point>
      <point x="95" y="549" type="line"></point>
    </contour>
    <contour>
      <point x="732" y="148" type="line"></point>
      <point x="889" y="148" type="line"></point>
      <point x="612" y="552" type="line"></point>
      <point x="896" y="953" type="line"></point>
      <point x="735" y="953" type="line"></point>
      <point x="448" y="549" type="line"></point>
    </contour>
  </outline>
</glyph>
<glyph name="logicalnot" format="1">
  <advance width="1255"></advance>
  <unicode hex="00AC"></unicode>
  <outline>
    <contour>
      <point x="949" y="253" type="line"></point>
      <point x="1070" y="253" type="line"></point>
      <point x="1070" y="804" type="line"></point>
      <point x="114" y="804" type="line"></point>
      <point x="114" y="676" type="line"></point>
      <point x="949" y="676" type="line"></point>
    </contour>
  </outline>
</glyph>
<glyph name="uni00AD" format="1">
  <advance width="1031"></advance>
  <unicode hex="00AD"></unicode>
  <outline>
    <contour>
      <point x="146" y="205" type="line"></point>
      <point x="888" y="205" type="line"></point>
      <point x="888" y="341" type="line"></point>
      <point x="146" y="341" type="line"></point>
    </contour>
  </outline>
</glyph>
<glyph name="registered" format="1">
  <advance width="1797"></advance>
  <unicode hex="00AE"></unicode>
  <outline>
    <contour>
      <point x="903" y="-20" type="curve" smooth="yes"></point>
      <point x="1279" y="-20"></point>
      <point x="1656" y="243"></point>
      <point x="1656" y="749" type="curve" smooth="yes"></point>
      <point x="1656" y="1253"></point>
      <point x="1279" y="1517"></point>
      <point x="903" y="1517" type="curve" smooth="yes"></point>
      <point x="528" y="1517"></point>
      <point x="152" y="1253"></point>
      <point x="152" y="749" type="curve" smooth="yes"></point>
      <point x="152" y="243"></point>
      <point x="528" y="-20"></point>
    </contour>
    <contour>
      <point x="903" y="66" type="curve" smooth="yes"></point>
      <point x="572" y="66"></point>
      <point x="256" y="304"></point>
      <point x="256" y="749" type="curve" smooth="yes"></point>
      <point x="256" y="1192"></point>
      <point x="572" y="1430"></point>
      <point x="903" y="1430" type="curve" smooth="yes"></point>
      <point x="1234" y="1430"></point>
      <point x="1553" y="1191"></point>
      <point x="1553" y="748" type="curve" smooth="yes"></point>
      <point x="1553" y="304"></point>
      <point x="1234" y="66"></point>
    </contour>
    <contour>
      <point x="722" y="841" type="line"></point>
      <point x="722" y="1142" type="line"></point>
      <point x="910" y="1142" type="line" smooth="yes"></point>
      <point x="1071" y="1142"></point>
      <point x="1131" y="1124"></point>
      <point x="1131" y="995" type="curve" smooth="yes"></point>
      <point x="1131" y="885"></point>
      <point x="1087" y="841"></point>
      <point x="946" y="841" type="curve" smooth="yes"></point>
    </contour>
    <contour>
      <point x="610" y="301" type="line"></point>
      <point x="721" y="301" type="line"></point>
      <point x="721" y="741" type="line"></point>
      <point x="937" y="741" type="line"></point>
      <point x="946" y="730"></point>
      <point x="1148" y="301"></point>
      <point x="1148" y="301" type="curve"></point>
      <point x="1272" y="301" type="line"></point>
      <point x="1272" y="301"></point>
      <point x="1064" y="733"></point>
      <point x="1048" y="756" type="curve"></point>
      <point x="1178" y="770"></point>
      <point x="1239" y="860"></point>
      <point x="1239" y="999" type="curve" smooth="yes"></point>
      <point x="1239" y="1166"></point>
      <point x="1158" y="1243"></point>
      <point x="926" y="1243" type="curve" smooth="yes"></point>
      <point x="610" y="1243" type="line"></point>
    </contour>
  </outline>
</glyph>
<glyph name="macron" format="1">
  <advance width="585"></advance>
  <unicode hex="00AF"></unicode>
  <outline>
    <contour>
      <point x="0" y="1231" type="line"></point>
      <point x="585" y="1231" type="line"></point>
      <point x="585" y="1353" type="line"></point>
      <point x="0" y="1353" type="line"></point>
    </contour>
    <contour>
      <point x="295" y="1042.4" type="move" smooth="yes"></point>
    </contour>
    <contour>
      <point x="264" y="1289.42" type="move" smooth="yes"></point>
    </contour>
  </outline>
</glyph>
<glyph name="degree" format="1">
  <advance width="852"></advance>
  <unicode hex="00B0"></unicode>
  <outline>
    <contour>
      <point x="432" y="907" type="curve" smooth="yes"></point>
      <point x="596" y="907"></point>
      <point x="733" y="1034"></point>
      <point x="733" y="1202" type="curve" smooth="yes"></point>
      <point x="733" y="1375"></point>
      <point x="592" y="1494"></point>
      <point x="432" y="1494" type="curve" smooth="yes"></point>
      <point x="275" y="1494"></point>
      <point x="133" y="1375"></point>
      <point x="133" y="1202" type="curve" smooth="yes"></point>
      <point x="133" y="1027"></point>
      <point x="275" y="907"></point>
    </contour>
    <contour>
      <point x="432" y="1003" type="curve" smooth="yes"></point>
      <point x="326" y="1003"></point>
      <point x="241" y="1083"></point>
      <point x="241" y="1201" type="curve" smooth="yes"></point>
      <point x="241" y="1318"></point>
      <point x="328" y="1398"></point>
      <point x="433" y="1398" type="curve" smooth="yes"></point>
      <point x="539" y="1398"></point>
      <point x="625" y="1318"></point>
      <point x="625" y="1201" type="curve" smooth="yes"></point>
      <point x="625" y="1084"></point>
      <point x="539" y="1003"></point>
    </contour>
  </outline>
</glyph>
<glyph name="plusminus" format="1">
  <advance width="1166"></advance>
  <unicode hex="00B1"></unicode>
  <outline>
    <contour>
      <point x="507" y="212" type="line"></point>
      <point x="633" y="212" type="line"></point>
      <point x="633" y="610" type="line"></point>
      <point x="998" y="610" type="line"></point>
      <point x="998" y="729" type="line"></point>
      <point x="632" y="729" type="line"></point>
      <point x="632" y="1117" type="line"></point>
      <point x="507" y="1117" type="line"></point>
      <point x="507" y="729" type="line"></point>
      <point x="135" y="729" type="line"></point>
      <point x="135" y="610" type="line"></point>
      <point x="507" y="610" type="line"></point>
    </contour>
    <contour>
      <point x="114" y="0" type="line"></point>
      <point x="114" y="118" type="line"></point>
      <point x="1043" y="118" type="line"></point>
      <point x="1043" y="0" type="line"></point>
    </contour>
  </outline>
</glyph>
<glyph name="uni00B2" format="1">
  <advance width="829"></advance>
  <unicode hex="00B2"></unicode>
  <outline>
    <contour>
      <point x="682" y="649" type="line"></point>
      <point x="167" y="649" type="line"></point>
      <point x="167" y="741" type="line"></point>
      <point x="407" y="988"></point>
      <point x="581" y="1144"></point>
      <point x="581" y="1269" type="curve" smooth="yes"></point>
      <point x="581" y="1378"></point>
      <point x="513" y="1425"></point>
      <point x="436" y="1425" type="curve" smooth="yes"></point>
      <point x="354" y="1425"></point>
      <point x="274" y="1388"></point>
      <point x="210" y="1300" type="curve"></point>
      <point x="139" y="1360" type="line"></point>
      <point x="190" y="1459"></point>
      <point x="311" y="1525"></point>
      <point x="424" y="1525" type="curve" smooth="yes"></point>
      <point x="579" y="1525"></point>
      <point x="693" y="1441"></point>
      <point x="693" y="1278" type="curve" smooth="yes"></point>
      <point x="693" y="1085"></point>
      <point x="522" y="947"></point>
      <point x="310" y="748" type="curve"></point>
      <point x="682" y="748" type="line"></point>
    </contour>
  </outline>
</glyph>
<glyph name="acute" format="1">
  <advance width="717"></advance>
  <unicode hex="00B4"></unicode>
  <unicode hex="0301"></unicode>
  <outline>
    <contour>
      <point x="203" y="1058" type="line"></point>
      <point x="300" y="1058" type="line"></point>
      <point x="592" y="1470" type="line"></point>
      <point x="386" y="1470" type="line"></point>
    </contour>
    <contour>
      <point x="246" y="945.25" type="move" smooth="yes"></point>
    </contour>
  </outline>
</glyph>
<glyph name="paragraph" format="1">
  <advance width="1106"></advance>
  <unicode hex="00B6"></unicode>
  <outline>
    <contour>
      <point x="464" y="0" type="line"></point>
      <point x="588" y="0" type="line"></point>
      <point x="588" y="1375" type="line"></point>
      <point x="764" y="1375" type="line"></point>
      <point x="764" y="0" type="line"></point>
      <point x="888" y="0" type="line"></point>
      <point x="888" y="1375" type="line"></point>
      <point x="1004" y="1375" type="line"></point>
      <point x="1004" y="1496" type="line"></point>
      <point x="495" y="1496" type="line" smooth="yes"></point>
      <point x="175" y="1496"></point>
      <point x="82" y="1316"></point>
      <point x="82" y="1157" type="curve" smooth="yes"></point>
      <point x="82" y="982"></point>
      <point x="183" y="811"></point>
      <point x="464" y="811" type="curve"></point>
    </contour>
  </outline>
</glyph>
<glyph name="periodcentered" format="1">
  <advance width="222"></advance>
  <unicode hex="00B7"></unicode>
  <outline>
    <contour>
      <point x="111" y="732" type="curve" smooth="yes"></point>
      <point x="174" y="732"></point>
      <point x="222" y="688"></point>
      <point x="222" y="624" type="curve" smooth="yes"></point>
      <point x="222" y="559"></point>
      <point x="174" y="514"></point>
      <point x="111" y="514" type="curve" smooth="yes"></point>
      <point x="47" y="514"></point>
      <point x="0" y="559"></point>
      <point x="0" y="624" type="curve" smooth="yes"></point>
      <point x="0" y="688"></point>
      <point x="47" y="732"></point>
    </contour>
    <contour>
      <point x="112" y="622.65" type="move" smooth="yes"></point>
    </contour>
  </outline>
</glyph>
<glyph name="cedilla" format="1">
  <advance width="232"></advance>
  <unicode hex="00B8"></unicode>
  <outline>
    <contour>
      <point x="0" y="-430" type="line"></point>
      <point x="164" y="-456" type="line"></point>
      <point x="232" y="22" type="line"></point>
      <point x="166" y="22" type="line"></point>
    </contour>
    <contour>
      <point x="195" y="11.4" type="move" smooth="yes"></point>
    </contour>
  </outline>
</glyph>
<glyph name="ordmasculine" format="1">
  <advance width="967"></advance>
  <unicode hex="00BA"></unicode>
  <outline>
    <contour>
      <point x="818" y="1114" type="curve" smooth="yes"></point>
      <point x="818" y="1339"></point>
      <point x="706" y="1499"></point>
      <point x="482" y="1499" type="curve" smooth="yes"></point>
      <point x="264" y="1499"></point>
      <point x="146" y="1336"></point>
      <point x="146" y="1114" type="curve" smooth="yes"></point>
      <point x="146" y="897"></point>
      <point x="264" y="735"></point>
      <point x="482" y="735" type="curve" smooth="yes"></point>
      <point x="688" y="735"></point>
      <point x="818" y="900"></point>
    </contour>
    <contour>
      <point x="283" y="1114" type="curve" smooth="yes"></point>
      <point x="283" y="1287"></point>
      <point x="350" y="1392"></point>
      <point x="482" y="1392" type="curve" smooth="yes"></point>
      <point x="618" y="1392"></point>
      <point x="688" y="1285"></point>
      <point x="688" y="1111" type="curve" smooth="yes"></point>
      <point x="688" y="942"></point>
      <point x="622" y="842"></point>
      <point x="482" y="842" type="curve" smooth="yes"></point>
      <point x="349" y="842"></point>
      <point x="283" y="943"></point>
    </contour>
  </outline>
</glyph>
<glyph name="guillemotright" format="1">
  <advance width="1013"></advance>
  <unicode hex="00BB"></unicode>
  <outline>
    <contour>
      <point x="259" y="148" type="line"></point>
      <point x="543" y="549" type="line"></point>
      <point x="256" y="953" type="line"></point>
      <point x="95" y="953" type="line"></point>
      <point x="379" y="552" type="line"></point>
      <point x="102" y="148" type="line"></point>
    </contour>
    <contour>
      <point x="612" y="148" type="line"></point>
      <point x="896" y="549" type="line"></point>
      <point x="608" y="953" type="line"></point>
      <point x="447" y="953" type="line"></point>
      <point x="731" y="552" type="line"></point>
      <point x="455" y="148" type="line"></point>
    </contour>
  </outline>
</glyph>
<glyph name="onequarter" format="1">
  <advance width="1520"></advance>
  <unicode hex="00BC"></unicode>
  <outline>
    <contour>
      <point x="995" y="297" type="line"></point>
      <point x="1233" y="690" type="line"></point>
      <point x="1233" y="297" type="line"></point>
    </contour>
    <contour>
      <point x="247" y="0" type="line"></point>
      <point x="379" y="0" type="line"></point>
      <point x="1286" y="1517" type="line"></point>
      <point x="1155" y="1517" type="line"></point>
    </contour>
    <contour>
      <point x="1234" y="0" type="line"></point>
      <point x="1361" y="0" type="line"></point>
      <point x="1361" y="191" type="line"></point>
      <point x="1483" y="191" type="line"></point>
      <point x="1475" y="297" type="line"></point>
      <point x="1362" y="297" type="line"></point>
      <point x="1362" y="857" type="line"></point>
      <point x="1224" y="857" type="line"></point>
      <point x="856" y="284" type="line"></point>
      <point x="856" y="191" type="line"></point>
      <point x="1234" y="191" type="line"></point>
    </contour>
    <contour>
      <point x="2" y="613" type="line"></point>
      <point x="433" y="613" type="line"></point>
      <point x="433" y="725" type="line"></point>
      <point x="294" y="725" type="line"></point>
      <point x="294" y="1496" type="line"></point>
      <point x="184" y="1496" type="line"></point>
      <point x="142" y="1457"></point>
      <point x="28" y="1406"></point>
      <point x="-6" y="1393" type="curve"></point>
      <point x="-6" y="1279" type="line"></point>
      <point x="26" y="1292"></point>
      <point x="119" y="1329"></point>
      <point x="156" y="1353" type="curve"></point>
      <point x="156" y="725" type="line"></point>
      <point x="2" y="725" type="line"></point>
    </contour>
  </outline>
</glyph>
<glyph name="onehalf" format="1">
  <advance width="1524"></advance>
  <unicode hex="00BD"></unicode>
  <outline>
    <contour>
      <point x="223" y="6" type="line"></point>
      <point x="356" y="6" type="line"></point>
      <point x="1264" y="1516" type="line"></point>
      <point x="1131" y="1516" type="line"></point>
    </contour>
    <contour>
      <point x="943" y="-9" type="line"></point>
      <point x="1464" y="-9" type="line"></point>
      <point x="1470" y="105" type="line"></point>
      <point x="1120" y="105" type="line"></point>
      <point x="1291" y="272" type="line" smooth="yes"></point>
      <point x="1415" y="393"></point>
      <point x="1478" y="465"></point>
      <point x="1478" y="606" type="curve" smooth="yes"></point>
      <point x="1478" y="773"></point>
      <point x="1347" y="862"></point>
      <point x="1195" y="862" type="curve" smooth="yes"></point>
      <point x="1080" y="862"></point>
      <point x="955" y="803"></point>
      <point x="902" y="707" type="curve"></point>
      <point x="974" y="628" type="line"></point>
      <point x="1032" y="707"></point>
      <point x="1115" y="742"></point>
      <point x="1193" y="742" type="curve" smooth="yes"></point>
      <point x="1275" y="742"></point>
      <point x="1346" y="696"></point>
      <point x="1346" y="598" type="curve" smooth="yes"></point>
      <point x="1346" y="527"></point>
      <point x="1306" y="465"></point>
      <point x="1191" y="349" type="curve" smooth="yes"></point>
      <point x="943" y="101" type="line"></point>
    </contour>
    <contour>
      <point x="3" y="613" type="line"></point>
      <point x="434" y="613" type="line"></point>
      <point x="434" y="725" type="line"></point>
      <point x="295" y="725" type="line"></point>
      <point x="295" y="1497" type="line"></point>
      <point x="185" y="1497" type="line"></point>
      <point x="143" y="1457"></point>
      <point x="29" y="1407"></point>
      <point x="-6" y="1393" type="curve"></point>
      <point x="-6" y="1279" type="line"></point>
      <point x="27" y="1292"></point>
      <point x="120" y="1330"></point>
      <point x="157" y="1353" type="curve"></point>
      <point x="157" y="725" type="line"></point>
      <point x="3" y="725" type="line"></point>
    </contour>
  </outline>
</glyph>
<glyph name="threequarters" format="1">
  <advance width="1428"></advance>
  <unicode hex="00BE"></unicode>
  <outline>
    <contour>
      <point x="178" y="630" type="curve" smooth="yes"></point>
      <point x="323" y="630"></point>
      <point x="439" y="728"></point>
      <point x="439" y="889" type="curve" smooth="yes"></point>
      <point x="439" y="988"></point>
      <point x="381" y="1068"></point>
      <point x="276" y="1100" type="curve"></point>
      <point x="382" y="1126"></point>
      <point x="420" y="1214"></point>
      <point x="420" y="1277" type="curve" smooth="yes"></point>
      <point x="420" y="1434"></point>
      <point x="298" y="1512"></point>
      <point x="173" y="1512" type="curve" smooth="yes"></point>
      <point x="86" y="1512"></point>
      <point x="-27" y="1476"></point>
      <point x="-82" y="1414" type="curve"></point>
      <point x="-29" y="1325" type="line"></point>
      <point x="9" y="1366"></point>
      <point x="101" y="1396"></point>
      <point x="168" y="1396" type="curve" smooth="yes"></point>
      <point x="238" y="1396"></point>
      <point x="289" y="1357"></point>
      <point x="289" y="1275" type="curve" smooth="yes"></point>
      <point x="289" y="1192"></point>
      <point x="212" y="1150"></point>
      <point x="112" y="1150" type="curve" smooth="yes"></point>
      <point x="41" y="1150" type="line"></point>
      <point x="41" y="1034" type="line"></point>
      <point x="115" y="1034" type="line" smooth="yes"></point>
      <point x="225" y="1034"></point>
      <point x="308" y="987"></point>
      <point x="308" y="893" type="curve" smooth="yes"></point>
      <point x="308" y="793"></point>
      <point x="245" y="746"></point>
      <point x="166" y="746" type="curve" smooth="yes"></point>
      <point x="104" y="746"></point>
      <point x="15" y="773"></point>
      <point x="-32" y="818" type="curve"></point>
      <point x="-80" y="720" type="line"></point>
      <point x="-21" y="656"></point>
      <point x="96" y="630"></point>
    </contour>
    <contour>
      <point x="1143" y="0" type="line"></point>
      <point x="1270" y="0" type="line"></point>
      <point x="1270" y="191" type="line"></point>
      <point x="1392" y="191" type="line"></point>
      <point x="1384" y="297" type="line"></point>
      <point x="1271" y="297" type="line"></point>
      <point x="1271" y="857" type="line"></point>
      <point x="1133" y="857" type="line"></point>
      <point x="765" y="284" type="line"></point>
      <point x="765" y="191" type="line"></point>
      <point x="1143" y="191" type="line"></point>
    </contour>
    <contour>
      <point x="904" y="297" type="line"></point>
      <point x="1142" y="690" type="line"></point>
      <point x="1142" y="297" type="line"></point>
    </contour>
    <contour>
      <point x="177" y="0" type="line"></point>
      <point x="309" y="0" type="line"></point>
      <point x="1216" y="1517" type="line"></point>
      <point x="1085" y="1517" type="line"></point>
    </contour>
  </outline>
</glyph>
<glyph name="AE" format="1">
  <advance width="1520"></advance>
  <unicode hex="00C6"></unicode>
  <outline>
    <contour>
      <point x="705" y="0" type="line"></point>
      <point x="1495" y="0" type="line"></point>
      <point x="1507" y="137" type="line"></point>
      <point x="874" y="137" type="line"></point>
      <point x="874" y="706" type="line"></point>
      <point x="1424" y="706" type="line"></point>
      <point x="1424" y="842" type="line"></point>
      <point x="874" y="842" type="line"></point>
      <point x="874" y="1361" type="line"></point>
      <point x="1486" y="1361" type="line"></point>
      <point x="1492" y="1496" type="line"></point>
      <point x="621" y="1496" type="line"></point>
      <point x="-19" y="0" type="line"></point>
      <point x="161" y="0" type="line"></point>
      <point x="362" y="482" type="line"></point>
      <point x="705" y="482" type="line"></point>
    </contour>
    <contour>
      <point x="705" y="607" type="line"></point>
      <point x="410" y="607" type="line"></point>
      <point x="705" y="1341" type="line"></point>
    </contour>
    <contour>
      <point x="1031" y="1496.5" type="move" smooth="yes"></point>
    </contour>
  </outline>
</glyph>
<glyph name="multiply" format="1">
  <advance width="1013"></advance>
  <unicode hex="00D7"></unicode>
  <outline>
    <contour>
      <point x="795" y="253" type="line"></point>
      <point x="882" y="349" type="line"></point>
      <point x="882" y="349"></point>
      <point x="613" y="645"></point>
      <point x="591" y="667" type="curve"></point>
      <point x="879" y="975" type="line"></point>
      <point x="784" y="1071" type="line"></point>
      <point x="501" y="763" type="line"></point>
      <point x="215" y="1075" type="line"></point>
      <point x="124" y="979" type="line"></point>
      <point x="410" y="667" type="line"></point>
      <point x="114" y="346" type="line"></point>
      <point x="205" y="253" type="line"></point>
      <point x="501" y="570" type="line"></point>
    </contour>
  </outline>
</glyph>
<glyph name="Oslash" format="1">
  <advance width="1059"></advance>
  <unicode hex="00D8"></unicode>
  <outline>
    <component base="O"></component>
    <contour>
      <point x="191" y="-228" type="line"></point>
      <point x="915" y="1670" type="line"></point>
      <point x="813" y="1709" type="line"></point>
      <point x="95" y="-194" type="line"></point>
    </contour>
  </outline>
</glyph>
<glyph name="Thorn" format="1">
  <advance width="1106"></advance>
  <unicode hex="00DE"></unicode>
  <outline>
    <contour>
      <point x="165" y="0" type="line"></point>
      <point x="341" y="0" type="line"></point>
      <point x="341" y="462" type="line"></point>
      <point x="528" y="462" type="line" smooth="yes"></point>
      <point x="866" y="462"></point>
      <point x="990" y="588"></point>
      <point x="990" y="835" type="curve" smooth="yes"></point>
      <point x="990" y="1093"></point>
      <point x="802" y="1170"></point>
      <point x="531" y="1170" type="curve" smooth="yes"></point>
      <point x="341" y="1170" type="line"></point>
      <point x="341" y="1496" type="line"></point>
      <point x="165" y="1496" type="line"></point>
    </contour>
    <contour>
      <point x="341" y="1041" type="line"></point>
      <point x="530" y="1041" type="line" smooth="yes"></point>
      <point x="710" y="1041"></point>
      <point x="814" y="1001"></point>
      <point x="814" y="833" type="curve" smooth="yes"></point>
      <point x="814" y="646"></point>
      <point x="741" y="593"></point>
      <point x="524" y="593" type="curve" smooth="yes"></point>
      <point x="341" y="593" type="line"></point>
    </contour>
  </outline>
</glyph>
<glyph name="germandbls" format="1">
  <advance width="1290"></advance>
  <unicode hex="00DF"></unicode>
  <outline>
    <contour>
      <point x="342" y="1" type="line"></point>
      <point x="178" y="1" type="line"></point>
      <point x="178" y="1088" type="line" smooth="yes"></point>
      <point x="178" y="1382"></point>
      <point x="330" y="1560"></point>
      <point x="627" y="1560" type="curve" smooth="yes"></point>
      <point x="851" y="1560"></point>
      <point x="994" y="1433"></point>
      <point x="994" y="1244" type="curve" smooth="yes"></point>
      <point x="994" y="1029"></point>
      <point x="785" y="917"></point>
      <point x="785" y="824" type="curve" smooth="yes"></point>
      <point x="785" y="705"></point>
      <point x="1177" y="592"></point>
      <point x="1177" y="294" type="curve" smooth="yes"></point>
      <point x="1177" y="102"></point>
      <point x="1055" y="-20"></point>
      <point x="855" y="-20" type="curve" smooth="yes"></point>
      <point x="729" y="-20"></point>
      <point x="590" y="18"></point>
      <point x="512" y="58" type="curve"></point>
      <point x="556" y="183" type="line"></point>
      <point x="612" y="153"></point>
      <point x="725" y="114"></point>
      <point x="836" y="114" type="curve" smooth="yes"></point>
      <point x="964" y="114"></point>
      <point x="1017" y="199"></point>
      <point x="1017" y="291" type="curve" smooth="yes"></point>
      <point x="1017" y="506"></point>
      <point x="633" y="611"></point>
      <point x="633" y="809" type="curve" smooth="yes"></point>
      <point x="633" y="977"></point>
      <point x="837" y="1037"></point>
      <point x="837" y="1245" type="curve" smooth="yes"></point>
      <point x="837" y="1354"></point>
      <point x="769" y="1429"></point>
      <point x="632" y="1429" type="curve" smooth="yes"></point>
      <point x="445" y="1429"></point>
      <point x="342" y="1336"></point>
      <point x="342" y="1092" type="curve" smooth="yes"></point>
    </contour>
  </outline>
</glyph>
<glyph name="ae" format="1">
  <advance width="1510"></advance>
  <unicode hex="00E6"></unicode>
  <outline>
    <contour>
      <point x="817" y="619" type="curve"></point>
      <point x="839" y="855"></point>
      <point x="960" y="978"></point>
      <point x="1139" y="978" type="curve" smooth="yes"></point>
      <point x="1294" y="978"></point>
      <point x="1380" y="905"></point>
      <point x="1380" y="800" type="curve" smooth="yes"></point>
      <point x="1380" y="661"></point>
      <point x="1217" y="619"></point>
    </contour>
    <contour>
      <point x="1142" y="-20" type="curve" smooth="yes"></point>
      <point x="1301" y="-20"></point>
      <point x="1409" y="17"></point>
      <point x="1503" y="75" type="curve"></point>
      <point x="1468" y="195" type="line"></point>
      <point x="1364" y="139"></point>
      <point x="1280" y="109"></point>
      <point x="1151" y="109" type="curve" smooth="yes"></point>
      <point x="954" y="109"></point>
      <point x="824" y="222"></point>
      <point x="814" y="508" type="curve"></point>
      <point x="1362" y="508"></point>
      <point x="1510" y="594"></point>
      <point x="1510" y="801" type="curve" smooth="yes"></point>
      <point x="1510" y="955"></point>
      <point x="1397" y="1108"></point>
      <point x="1136" y="1108" type="curve" smooth="yes"></point>
      <point x="993" y="1108"></point>
      <point x="818" y="1023"></point>
      <point x="767" y="855" type="curve"></point>
      <point x="734" y="1036"></point>
      <point x="598" y="1108"></point>
      <point x="416" y="1108" type="curve" smooth="yes"></point>
      <point x="294" y="1108"></point>
      <point x="168" y="1083"></point>
      <point x="54" y="1029" type="curve"></point>
      <point x="99" y="904" type="line"></point>
      <point x="199" y="954"></point>
      <point x="315" y="978"></point>
      <point x="419" y="978" type="curve" smooth="yes"></point>
      <point x="582" y="978"></point>
      <point x="650" y="898"></point>
      <point x="650" y="742" type="curve" smooth="yes"></point>
      <point x="650" y="593" type="line"></point>
      <point x="572" y="603"></point>
      <point x="502" y="607"></point>
      <point x="440" y="607" type="curve" smooth="yes"></point>
      <point x="121" y="607"></point>
      <point x="0" y="482"></point>
      <point x="0" y="293" type="curve" smooth="yes"></point>
      <point x="0" y="92"></point>
      <point x="125" y="-20"></point>
      <point x="316" y="-20" type="curve" smooth="yes"></point>
      <point x="587" y="-20"></point>
      <point x="698" y="152"></point>
      <point x="732" y="254" type="curve"></point>
      <point x="774" y="147"></point>
      <point x="867" y="-20"></point>
    </contour>
    <contour>
      <point x="650" y="420" type="line" smooth="yes"></point>
      <point x="650" y="216"></point>
      <point x="525" y="104"></point>
      <point x="324" y="104" type="curve" smooth="yes"></point>
      <point x="231" y="104"></point>
      <point x="158" y="167"></point>
      <point x="158" y="292" type="curve" smooth="yes"></point>
      <point x="158" y="415"></point>
      <point x="220" y="494"></point>
      <point x="450" y="494" type="curve" smooth="yes"></point>
      <point x="506" y="494"></point>
      <point x="573" y="489"></point>
      <point x="650" y="479" type="curve"></point>
    </contour>
    <contour>
      <point x="797" y="1084.95" type="move" smooth="yes"></point>
    </contour>
  </outline>
</glyph>
<glyph name="eth" format="1">
  <advance width="1244"></advance>
  <unicode hex="00F0"></unicode>
  <outline>
    <contour>
      <point x="615" y="109" type="curve" smooth="yes"></point>
      <point x="384" y="109"></point>
      <point x="273" y="295"></point>
      <point x="273" y="489" type="curve" smooth="yes"></point>
      <point x="273" y="697"></point>
      <point x="397" y="854"></point>
      <point x="609" y="854" type="curve" smooth="yes"></point>
      <point x="833" y="854"></point>
      <point x="956" y="681"></point>
      <point x="956" y="499" type="curve" smooth="yes"></point>
      <point x="956" y="263"></point>
      <point x="840" y="109"></point>
    </contour>
    <contour>
      <point x="609" y="-20" type="curve" smooth="yes"></point>
      <point x="941" y="-20"></point>
      <point x="1104" y="203"></point>
      <point x="1104" y="492" type="curve" smooth="yes"></point>
      <point x="1104" y="630"></point>
      <point x="1070" y="771"></point>
      <point x="1019" y="872" type="curve" smooth="yes"></point>
      <point x="953" y="1001"></point>
      <point x="854" y="1132"></point>
      <point x="662" y="1340" type="curve"></point>
      <point x="915" y="1437" type="line"></point>
      <point x="867" y="1544" type="line"></point>
      <point x="578" y="1432" type="line"></point>
      <point x="423" y="1587" type="line"></point>
      <point x="238" y="1587" type="line"></point>
      <point x="454" y="1382" type="line"></point>
      <point x="230" y="1294" type="line"></point>
      <point x="277" y="1184" type="line"></point>
      <point x="533" y="1285" type="line"></point>
      <point x="715" y="1104"></point>
      <point x="815" y="970"></point>
      <point x="868" y="870" type="curve"></point>
      <point x="808" y="916"></point>
      <point x="742" y="977"></point>
      <point x="594" y="977" type="curve" smooth="yes"></point>
      <point x="314" y="977"></point>
      <point x="114" y="782"></point>
      <point x="114" y="490" type="curve" smooth="yes"></point>
      <point x="114" y="222"></point>
      <point x="285" y="-20"></point>
    </contour>
  </outline>
</glyph>
<glyph name="divide" format="1">
  <advance width="1166"></advance>
  <unicode hex="00F7"></unicode>
  <outline>
    <contour>
      <point x="495" y="892" type="line"></point>
      <point x="688" y="892" type="line"></point>
      <point x="688" y="1094" type="line"></point>
      <point x="495" y="1094" type="line"></point>
    </contour>
    <contour>
      <point x="114" y="507" type="line"></point>
      <point x="1065" y="507" type="line"></point>
      <point x="1065" y="645" type="line"></point>
      <point x="114" y="645" type="line"></point>
    </contour>
    <contour>
      <point x="495" y="32" type="line"></point>
      <point x="686" y="32" type="line"></point>
      <point x="686" y="238" type="line"></point>
      <point x="495" y="238" type="line"></point>
    </contour>
  </outline>
</glyph>
<glyph name="oslash" format="1">
  <advance width="1076"></advance>
  <unicode hex="00F8"></unicode>
  <outline>
    <component base="o"></component>
    <contour>
      <point x="192" y="-162" type="line"></point>
      <point x="917" y="1200" type="line"></point>
      <point x="846" y="1238" type="line"></point>
      <point x="127" y="-124" type="line"></point>
    </contour>
  </outline>
</glyph>
<glyph name="thorn" format="1">
  <advance width="645"></advance>
  <unicode hex="00FE"></unicode>
  <outline>
    <component base="b"></component>
    <contour>
      <point x="235" y="316" type="line"></point>
      <point x="235" y="-464" type="line"></point>
      <point x="403" y="-464" type="line"></point>
      <point x="403" y="316" type="line"></point>
    </contour>
  </outline>
</glyph>
<glyph name="dcroat" format="1">
  <advance width="852"></advance>
  <unicode hex="0111"></unicode>
  <outline>
    <component base="d"></component>
    <contour>
      <point x="165" y="1263" type="line"></point>
      <point x="660" y="1263" type="line"></point>
      <point x="660" y="1375" type="line"></point>
      <point x="165" y="1375" type="line"></point>
    </contour>
  </outline>
</glyph>
<glyph name="dotlessi" format="1">
  <advance width="627"></advance>
  <unicode hex="0131"></unicode>
  <outline>
    <contour>
      <point x="235" y="0" type="line"></point>
      <point x="399" y="0" type="line"></point>
      <point x="399" y="1084" type="line"></point>
      <point x="235" y="1084" type="line"></point>
    </contour>
    <contour>
      <point x="316" y="1084.45" type="move" smooth="yes"></point>
    </contour>
  </outline>
</glyph>
<glyph name="Eng" format="1">
  <advance width="1435"></advance>
  <unicode hex="014A"></unicode>
  <outline>
    <contour>
      <point x="854" y="-316" type="curve" smooth="yes"></point>
      <point x="823" y="-316"></point>
      <point x="774" y="-314"></point>
      <point x="636" y="-301" type="curve"></point>
      <point x="614" y="-170" type="line"></point>
      <point x="767" y="-180"></point>
      <point x="777" y="-181"></point>
      <point x="800" y="-181" type="curve" smooth="yes"></point>
      <point x="1092" y="-181"></point>
      <point x="1112" y="-104"></point>
      <point x="1112" y="181" type="curve" smooth="yes"></point>
      <point x="1112" y="1012" type="line" smooth="yes"></point>
      <point x="1112" y="1281"></point>
      <point x="1038" y="1370"></point>
      <point x="816" y="1370" type="curve" smooth="yes"></point>
      <point x="582" y="1370"></point>
      <point x="418" y="1234"></point>
      <point x="324" y="1093" type="curve"></point>
      <point x="324" y="8" type="line"></point>
      <point x="187" y="8" type="line"></point>
      <point x="184" y="1504" type="line"></point>
      <point x="311" y="1504" type="line"></point>
      <point x="327" y="1277" type="line"></point>
      <point x="520" y="1485"></point>
      <point x="693" y="1520"></point>
      <point x="865" y="1520" type="curve" smooth="yes"></point>
      <point x="1118" y="1520"></point>
      <point x="1249" y="1346"></point>
      <point x="1249" y="1016" type="curve" smooth="yes"></point>
      <point x="1249" y="173" type="line" smooth="yes"></point>
      <point x="1249" y="-130"></point>
      <point x="1200" y="-316"></point>
    </contour>
  </outline>
</glyph>
<glyph name="eng" format="1">
  <advance width="1166"></advance>
  <unicode hex="014B"></unicode>
  <outline>
    <contour>
      <point x="635" y="-282" type="line"></point>
      <point x="702" y="-282" type="line" smooth="yes"></point>
      <point x="978" y="-282"></point>
      <point x="1018" y="-129"></point>
      <point x="1018" y="172" type="curve" smooth="yes"></point>
      <point x="1018" y="670" type="line" smooth="yes"></point>
      <point x="1018" y="965"></point>
      <point x="915" y="1114"></point>
      <point x="671" y="1114" type="curve" smooth="yes"></point>
      <point x="519" y="1114"></point>
      <point x="409" y="1055"></point>
      <point x="334" y="932" type="curve"></point>
      <point x="315" y="1093" type="line"></point>
      <point x="171" y="1093" type="line"></point>
      <point x="171" y="7" type="line"></point>
      <point x="338" y="7" type="line"></point>
      <point x="338" y="612" type="line" smooth="yes"></point>
      <point x="338" y="661"></point>
      <point x="341" y="706"></point>
      <point x="345" y="750" type="curve"></point>
      <point x="376" y="883"></point>
      <point x="455" y="984"></point>
      <point x="643" y="984" type="curve" smooth="yes"></point>
      <point x="813" y="984"></point>
      <point x="852" y="871"></point>
      <point x="852" y="689" type="curve" smooth="yes"></point>
      <point x="852" y="119" type="line" smooth="yes"></point>
      <point x="852" y="-100"></point>
      <point x="834" y="-129"></point>
      <point x="662" y="-129" type="curve" smooth="yes"></point>
      <point x="627" y="-129" type="line"></point>
    </contour>
  </outline>
</glyph>
<glyph name="OE" format="1">
  <advance width="1210"></advance>
  <unicode hex="0152"></unicode>
  <outline>
    <component base="E" xOffset="748"></component>
    <contour>
      <point x="1017" y="1496" type="line"></point>
      <point x="886" y="1496" type="line" smooth="yes"></point>
      <point x="424" y="1496"></point>
      <point x="133" y="1231"></point>
      <point x="133" y="744" type="curve" smooth="yes"></point>
      <point x="133" y="232"></point>
      <point x="452" y="0"></point>
      <point x="915" y="0" type="curve" smooth="yes"></point>
      <point x="1017" y="0" type="line"></point>
    </contour>
    <contour>
      <point x="943" y="135" type="line"></point>
      <point x="923" y="135" type="line" smooth="yes"></point>
      <point x="534" y="135"></point>
      <point x="309" y="315"></point>
      <point x="309" y="749" type="curve" smooth="yes"></point>
      <point x="309" y="1146"></point>
      <point x="505" y="1359"></point>
      <point x="896" y="1359" type="curve" smooth="yes"></point>
      <point x="943" y="1359" type="line"></point>
    </contour>
  </outline>
</glyph>
<glyph name="uni01E2" format="1">
  <advance width="506"></advance>
  <unicode hex="01E2"></unicode>
  <outline>
    <component base="macron" xOffset="74" yOffset="-105"></component>
    <contour>
      <point x="260" y="1005.05" type="move" smooth="yes"></point>
    </contour>
  </outline>
</glyph>
<glyph name="uni0237" format="1">
  <advance width="875"></advance>
  <unicode hex="0237"></unicode>
  <outline>
    <contour>
      <point x="293" y="-455" type="line"></point>
      <point x="350" y="-455" type="line" smooth="yes"></point>
      <point x="604" y="-455"></point>
      <point x="657" y="-370"></point>
      <point x="657" y="-112" type="curve" smooth="yes"></point>
      <point x="657" y="1111" type="line"></point>
      <point x="477" y="1111" type="line"></point>
      <point x="477" y="-87" type="line" smooth="yes"></point>
      <point x="477" y="-123"></point>
      <point x="478" y="-154"></point>
      <point x="478" y="-180" type="curve" smooth="yes"></point>
      <point x="478" y="-277"></point>
      <point x="463" y="-313"></point>
      <point x="320" y="-313" type="curve" smooth="yes"></point>
      <point x="260" y="-313" type="line"></point>
    </contour>
  </outline>
</glyph>
<glyph name="uni02BC" format="1">
  <advance width="672"></advance>
  <unicode hex="02BC"></unicode>
  <outline>
    <contour>
      <point x="210" y="1058" type="line"></point>
      <point x="334" y="1058" type="line"></point>
      <point x="502" y="1516" type="line"></point>
      <point x="322" y="1516" type="line"></point>
    </contour>
    <contour>
      <point x="260" y="945.25" type="move" smooth="yes"></point>
    </contour>
    <contour>
      <point x="272" y="945.25" type="move" smooth="yes"></point>
    </contour>
    <contour>
      <point x="420" y="1598.17" type="move" smooth="yes"></point>
    </contour>
  </outline>
</glyph>
<glyph name="circumflex" format="1">
  <advance width="967"></advance>
  <unicode hex="02C6"></unicode>
  <outline>
    <contour>
      <point x="260" y="1166" type="line"></point>
      <point x="371" y="1166" type="line"></point>
      <point x="569" y="1376" type="line"></point>
      <point x="763" y="1166" type="line"></point>
      <point x="875" y="1166" type="line"></point>
      <point x="667" y="1467" type="line"></point>
      <point x="480" y="1467" type="line"></point>
    </contour>
    <contour>
      <point x="569" y="1004.05" type="move" smooth="yes"></point>
    </contour>
  </outline>
</glyph>
<glyph name="caron" format="1">
  <advance width="967"></advance>
  <unicode hex="02C7"></unicode>
  <outline>
    <contour>
      <point x="492" y="1134" type="line"></point>
      <point x="677" y="1134" type="line"></point>
      <point x="922" y="1468" type="line"></point>
      <point x="803" y="1468" type="line"></point>
      <point x="582" y="1232" type="line"></point>
      <point x="378" y="1468" type="line"></point>
      <point x="260" y="1468" type="line"></point>
    </contour>
    <contour>
      <point x="582" y="1004.85" type="move" smooth="yes"></point>
    </contour>
  </outline>
</glyph>
<glyph name="breve" format="1">
  <advance width="829"></advance>
  <unicode hex="02D8"></unicode>
  <outline>
    <contour>
      <point x="491" y="1117" type="curve" smooth="yes"></point>
      <point x="616" y="1117"></point>
      <point x="726" y="1186"></point>
      <point x="726" y="1356" type="curve"></point>
      <point x="624" y="1356" type="line"></point>
      <point x="624" y="1256"></point>
      <point x="559" y="1217"></point>
      <point x="491" y="1217" type="curve" smooth="yes"></point>
      <point x="423" y="1217"></point>
      <point x="362" y="1256"></point>
      <point x="362" y="1356" type="curve"></point>
      <point x="260" y="1356" type="line"></point>
      <point x="260" y="1186"></point>
      <point x="367" y="1117"></point>
    </contour>
    <contour>
      <point x="493" y="1005.27" type="move" smooth="yes"></point>
    </contour>
  </outline>
</glyph>
<glyph name="dotaccent" format="1">
  <advance width="151"></advance>
  <unicode hex="02D9"></unicode>
  <outline>
    <contour>
      <point x="0" y="1179" type="line"></point>
      <point x="151" y="1179" type="line"></point>
      <point x="151" y="1354" type="line"></point>
      <point x="0" y="1354" type="line"></point>
    </contour>
    <contour>
      <point x="75" y="1003.73" type="move" smooth="yes"></point>
    </contour>
  </outline>
</glyph>
<glyph name="ogonek" format="1">
  <advance width="783"></advance>
  <unicode hex="02DB"></unicode>
  <outline>
    <contour>
      <point x="593" y="-380" type="curve"></point>
      <point x="591" y="-277" type="line"></point>
      <point x="572" y="-285"></point>
      <point x="525" y="-301"></point>
      <point x="483" y="-301" type="curve" smooth="yes"></point>
      <point x="438" y="-301"></point>
      <point x="400" y="-278"></point>
      <point x="400" y="-220" type="curve" smooth="yes"></point>
      <point x="400" y="-142"></point>
      <point x="487" y="-29"></point>
      <point x="546" y="14" type="curve"></point>
      <point x="466" y="14" type="line"></point>
      <point x="362" y="-28"></point>
      <point x="260" y="-146"></point>
      <point x="260" y="-260" type="curve" smooth="yes"></point>
      <point x="260" y="-351"></point>
      <point x="324" y="-410"></point>
      <point x="449" y="-410" type="curve" smooth="yes"></point>
      <point x="498" y="-410"></point>
      <point x="561" y="-396"></point>
    </contour>
    <contour>
      <point x="501" y="10.25" type="move" smooth="yes"></point>
    </contour>
  </outline>
</glyph>
<glyph name="hungarumlaut" format="1">
  <advance width="897"></advance>
  <unicode hex="02DD"></unicode>
  <outline>
    <contour>
      <point x="466" y="1058" type="line"></point>
      <point x="552" y="1058" type="line"></point>
      <point x="835" y="1470" type="line"></point>
      <point x="647" y="1470" type="line"></point>
    </contour>
    <contour>
      <point x="210" y="1058" type="line"></point>
      <point x="294" y="1058" type="line"></point>
      <point x="536" y="1470" type="line"></point>
      <point x="360" y="1470" type="line"></point>
    </contour>
    <contour>
      <point x="364" y="945.25" type="move" smooth="yes"></point>
    </contour>
  </outline>
</glyph>
<glyph name="gravecomb" format="1">
  <advance width="852"></advance>
  <unicode hex="0300"></unicode>
  <outline>
    <contour>
      <point x="531" y="1058" type="line"></point>
      <point x="625" y="1058" type="line"></point>
      <point x="449" y="1470" type="line"></point>
      <point x="261" y="1470" type="line"></point>
    </contour>
  </outline>
</glyph>
<glyph name="acutecomb" format="1">
  <advance width="389"></advance>
  <unicode hex="0301"></unicode>
  <outline>
    <contour>
      <point x="0" y="1058" type="line"></point>
      <point x="97" y="1058" type="line"></point>
      <point x="389" y="1470" type="line"></point>
      <point x="183" y="1470" type="line"></point>
    </contour>
    <contour>
      <point x="56" y="1006.75" type="move" smooth="yes"></point>
    </contour>
  </outline>
</glyph>
<glyph name="tildecomb" format="1">
  <advance width="921"></advance>
  <unicode hex="0303"></unicode>
  <outline>
    <contour>
      <point x="344" y="1261" type="line"></point>
      <point x="352" y="1332"></point>
      <point x="377" y="1360"></point>
      <point x="412" y="1360" type="curve" smooth="yes"></point>
      <point x="484" y="1360"></point>
      <point x="603" y="1261"></point>
      <point x="707" y="1261" type="curve" smooth="yes"></point>
      <point x="788" y="1261"></point>
      <point x="847" y="1325"></point>
      <point x="847" y="1465" type="curve"></point>
      <point x="761" y="1465" type="line"></point>
      <point x="753" y="1398"></point>
      <point x="732" y="1378"></point>
      <point x="701" y="1378" type="curve" smooth="yes"></point>
      <point x="639" y="1378"></point>
      <point x="535" y="1466"></point>
      <point x="418" y="1466" type="curve" smooth="yes"></point>
      <point x="324" y="1466"></point>
      <point x="260" y="1402"></point>
      <point x="260" y="1261" type="curve"></point>
    </contour>
    <contour>
      <point x="565" y="1052.92" type="move" smooth="yes"></point>
    </contour>
  </outline>
</glyph>
<glyph name="uni0306" format="1">
  <advance width="852"></advance>
  <unicode hex="0306"></unicode>
  <outline>
    <contour>
      <point x="492" y="1117" type="curve" smooth="yes"></point>
      <point x="617" y="1117"></point>
      <point x="727" y="1186"></point>
      <point x="727" y="1356" type="curve"></point>
      <point x="625" y="1356" type="line"></point>
      <point x="625" y="1256"></point>
      <point x="560" y="1217"></point>
      <point x="492" y="1217" type="curve" smooth="yes"></point>
      <point x="424" y="1217"></point>
      <point x="363" y="1256"></point>
      <point x="363" y="1356" type="curve"></point>
      <point x="261" y="1356" type="line"></point>
      <point x="261" y="1186"></point>
      <point x="368" y="1117"></point>
    </contour>
    <contour>
      <point x="491" y="1005.27" type="move" smooth="yes"></point>
    </contour>
  </outline>
</glyph>
<glyph name="uni0307" format="1">
  <advance width="151"></advance>
  <unicode hex="0307"></unicode>
  <outline>
    <contour>
      <point x="0" y="1164" type="line"></point>
      <point x="151" y="1164" type="line"></point>
      <point x="151" y="1355" type="line"></point>
      <point x="0" y="1355" type="line"></point>
    </contour>
    <contour>
      <point x="70" y="1004.1" type="move" smooth="yes"></point>
    </contour>
  </outline>
</glyph>
<glyph name="uni030A" format="1">
  <advance width="762"></advance>
  <unicode hex="030A"></unicode>
  <outline>
    <contour>
      <point x="445" y="1128" type="curve" smooth="yes"></point>
      <point x="551" y="1128"></point>
      <point x="628" y="1208"></point>
      <point x="628" y="1308" type="curve" smooth="yes"></point>
      <point x="628" y="1409"></point>
      <point x="552" y="1489"></point>
      <point x="445" y="1489" type="curve" smooth="yes"></point>
      <point x="338" y="1489"></point>
      <point x="261" y="1409"></point>
      <point x="261" y="1308" type="curve" smooth="yes"></point>
      <point x="261" y="1208"></point>
      <point x="339" y="1128"></point>
    </contour>
    <contour>
      <point x="445" y="1205" type="curve" smooth="yes"></point>
      <point x="389" y="1205"></point>
      <point x="349" y="1251"></point>
      <point x="349" y="1307" type="curve" smooth="yes"></point>
      <point x="349" y="1363"></point>
      <point x="390" y="1409"></point>
      <point x="445" y="1409" type="curve" smooth="yes"></point>
      <point x="501" y="1409"></point>
      <point x="541" y="1363"></point>
      <point x="541" y="1307" type="curve" smooth="yes"></point>
      <point x="541" y="1251"></point>
      <point x="501" y="1205"></point>
    </contour>
    <contour>
      <point x="446" y="1005" type="move" smooth="yes"></point>
    </contour>
  </outline>
</glyph>
<glyph name="uni030C" format="1">
  <advance width="875"></advance>
  <unicode hex="030C"></unicode>
  <outline>
    <contour>
      <point x="795" y="1469" type="line"></point>
      <point x="684" y="1469" type="line"></point>
      <point x="526" y="1188" type="line"></point>
      <point x="372" y="1469" type="line"></point>
      <point x="260" y="1469" type="line"></point>
      <point x="428" y="1087" type="line"></point>
      <point x="615" y="1087" type="line"></point>
    </contour>
    <contour>
      <point x="526" y="1006.02" type="move" smooth="yes"></point>
    </contour>
  </outline>
</glyph>
<glyph name="uni030F" format="1">
  <advance width="1013"></advance>
  <unicode hex="030F"></unicode>
  <outline>
    <contour>
      <point x="601" y="1058" type="line"></point>
      <point x="496" y="1058" type="line"></point>
      <point x="260" y="1470" type="line"></point>
      <point x="423" y="1470" type="line"></point>
    </contour>
    <contour>
      <point x="804" y="1058" type="line"></point>
      <point x="711" y="1058" type="line"></point>
      <point x="533" y="1470" type="line"></point>
      <point x="691" y="1470" type="line"></point>
    </contour>
    <contour>
      <point x="674" y="945.25" type="move" smooth="yes"></point>
    </contour>
  </outline>
</glyph>
<glyph name="uni0311" format="1">
  <advance width="897"></advance>
  <unicode hex="0311"></unicode>
  <outline>
    <contour>
      <point x="210" y="1058" type="curve"></point>
      <point x="310" y="1058" type="line"></point>
      <point x="310" y="1157"></point>
      <point x="366" y="1205"></point>
      <point x="440" y="1205" type="curve" smooth="yes"></point>
      <point x="513" y="1205"></point>
      <point x="572" y="1157"></point>
      <point x="572" y="1058" type="curve"></point>
      <point x="675" y="1058" type="line"></point>
      <point x="675" y="1229"></point>
      <point x="554" y="1301"></point>
      <point x="439" y="1301" type="curve" smooth="yes"></point>
      <point x="325" y="1301"></point>
      <point x="210" y="1230"></point>
    </contour>
    <contour>
      <point x="441" y="945.25" type="move" smooth="yes"></point>
    </contour>
  </outline>
</glyph>
<glyph name="uni031B" format="1">
  <advance width="691"></advance>
  <unicode hex="031B"></unicode>
  <outline>
    <contour>
      <point x="359" y="502" type="line"></point>
      <point x="367" y="481"></point>
      <point x="373" y="448"></point>
      <point x="373" y="414" type="curve" smooth="yes"></point>
      <point x="373" y="341"></point>
      <point x="347" y="247"></point>
      <point x="238" y="247" type="curve" smooth="yes"></point>
      <point x="232" y="247"></point>
      <point x="223" y="247"></point>
      <point x="216" y="248" type="curve"></point>
      <point x="216" y="165" type="line"></point>
      <point x="237" y="162"></point>
      <point x="257" y="160"></point>
      <point x="276" y="160" type="curve" smooth="yes"></point>
      <point x="435" y="160"></point>
      <point x="478" y="269"></point>
      <point x="478" y="368" type="curve" smooth="yes"></point>
      <point x="478" y="419"></point>
      <point x="466" y="470"></point>
      <point x="452" y="502" type="curve"></point>
    </contour>
    <contour>
      <point x="220" y="206.125" type="move" smooth="yes"></point>
    </contour>
  </outline>
</glyph>
<glyph name="uni0326" format="1">
  <advance width="672"></advance>
  <unicode hex="0326"></unicode>
  <outline>
    <contour>
      <point x="261" y="-594" type="curve"></point>
      <point x="358" y="-594" type="line"></point>
      <point x="358" y="-594"></point>
      <point x="475" y="-141"></point>
      <point x="475" y="-111" type="curve" smooth="yes"></point>
      <point x="475" y="-70" type="line"></point>
      <point x="302" y="-70" type="line"></point>
      <point x="302" y="-145"></point>
      <point x="261" y="-594"></point>
    </contour>
    <contour>
      <point x="393" y="14.85" type="move" smooth="yes"></point>
    </contour>
  </outline>
</glyph>
<glyph name="Gamma" format="1">
  <advance width="1060"></advance>
  <unicode hex="0393"></unicode>
  <outline>
    <contour>
      <point x="197" y="0" type="line"></point>
      <point x="197" y="1485" type="line"></point>
      <point x="1049" y="1484" type="line"></point>
      <point x="1044" y="1388" type="line"></point>
      <point x="319" y="1389" type="line"></point>
      <point x="319" y="0" type="line"></point>
    </contour>
  </outline>
</glyph>
<glyph name="Delta" format="1">
  <advance width="1246"></advance>
  <unicode hex="0394"></unicode>
  <outline>
    <contour>
      <point x="218" y="146" type="line"></point>
      <point x="1032" y="146" type="line"></point>
      <point x="622" y="1307" type="line"></point>
    </contour>
    <contour>
      <point x="0" y="0" type="line"></point>
      <point x="539" y="1482" type="line"></point>
      <point x="705" y="1482" type="line"></point>
      <point x="1246" y="0" type="line"></point>
    </contour>
  </outline>
</glyph>
<glyph name="Lambda" format="1">
  <advance width="1290"></advance>
  <unicode hex="039B"></unicode>
  <outline>
    <contour>
      <point x="25" y="0" type="line"></point>
      <point x="558" y="1482" type="line"></point>
      <point x="735" y="1482" type="line"></point>
      <point x="1270" y="0" type="line"></point>
      <point x="1098" y="0" type="line"></point>
      <point x="646" y="1302" type="line"></point>
      <point x="201" y="0" type="line"></point>
    </contour>
  </outline>
</glyph>
<glyph name="Pi" format="1">
  <advance width="1474"></advance>
  <unicode hex="03A0"></unicode>
  <outline>
    <contour>
      <point x="171" y="0" type="line"></point>
      <point x="171" y="1482" type="line"></point>
      <point x="1309" y="1482" type="line"></point>
      <point x="1309" y="0" type="line"></point>
      <point x="1142" y="0" type="line"></point>
      <point x="1142" y="1336" type="line"></point>
      <point x="340" y="1336" type="line"></point>
      <point x="340" y="0" type="line"></point>
    </contour>
  </outline>
</glyph>
<glyph name="Sigma" format="1">
  <advance width="1152"></advance>
  <unicode hex="03A3"></unicode>
  <outline>
    <contour>
      <point x="165" y="0" type="line"></point>
      <point x="165" y="1469" type="line"></point>
      <point x="1029" y="1469" type="line"></point>
      <point x="1022" y="1331" type="line"></point>
      <point x="323" y="1331" type="line"></point>
      <point x="323" y="828" type="line"></point>
      <point x="962" y="828" type="line"></point>
      <point x="962" y="692" type="line"></point>
      <point x="323" y="692" type="line"></point>
      <point x="323" y="137" type="line"></point>
      <point x="1027" y="137" type="line"></point>
      <point x="1019" y="0" type="line"></point>
    </contour>
  </outline>
</glyph>
<glyph name="Phi" format="1">
  <advance width="1613"></advance>
  <unicode hex="03A6"></unicode>
  <outline>
    <contour>
      <point x="892" y="317" type="line"></point>
      <point x="1203" y="344"></point>
      <point x="1340" y="534"></point>
      <point x="1340" y="766" type="curve" smooth="yes"></point>
      <point x="1340" y="1006"></point>
      <point x="1191" y="1174"></point>
      <point x="892" y="1200" type="curve"></point>
    </contour>
    <contour>
      <point x="724" y="317" type="curve"></point>
      <point x="724" y="1200" type="line"></point>
      <point x="429" y="1173"></point>
      <point x="280" y="1006"></point>
      <point x="280" y="766" type="curve" smooth="yes"></point>
      <point x="280" y="534"></point>
      <point x="417" y="345"></point>
    </contour>
    <contour>
      <point x="724" y="0" type="line"></point>
      <point x="724" y="170" type="line"></point>
      <point x="314" y="200"></point>
      <point x="101" y="447"></point>
      <point x="101" y="766" type="curve" smooth="yes"></point>
      <point x="101" y="1091"></point>
      <point x="328" y="1318"></point>
      <point x="724" y="1347" type="curve"></point>
      <point x="724" y="1482" type="line"></point>
      <point x="892" y="1482" type="line"></point>
      <point x="892" y="1347" type="line"></point>
      <point x="1293" y="1320"></point>
      <point x="1519" y="1092"></point>
      <point x="1519" y="766" type="curve" smooth="yes"></point>
      <point x="1519" y="445"></point>
      <point x="1305" y="198"></point>
      <point x="892" y="170" type="curve"></point>
      <point x="892" y="0" type="line"></point>
    </contour>
  </outline>
</glyph>
<glyph name="Omega" format="1">
  <advance width="1567"></advance>
  <unicode hex="03A9"></unicode>
  <outline>
    <contour>
      <point x="781" y="-20" type="curve" smooth="yes"></point>
      <point x="346" y="-20"></point>
      <point x="89" y="272"></point>
      <point x="89" y="731" type="curve" smooth="yes"></point>
      <point x="89" y="1200"></point>
      <point x="352" y="1492"></point>
      <point x="781" y="1492" type="curve" smooth="yes"></point>
      <point x="1205" y="1492"></point>
      <point x="1472" y="1198"></point>
      <point x="1472" y="730" type="curve" smooth="yes"></point>
      <point x="1472" y="275"></point>
      <point x="1212" y="-20"></point>
    </contour>
    <contour>
      <point x="781" y="158" type="curve" smooth="yes"></point>
      <point x="1091" y="158"></point>
      <point x="1250" y="398"></point>
      <point x="1250" y="730" type="curve" smooth="yes"></point>
      <point x="1250" y="1074"></point>
      <point x="1085" y="1311"></point>
      <point x="781" y="1311" type="curve" smooth="yes"></point>
      <point x="477" y="1311"></point>
      <point x="310" y="1075"></point>
      <point x="310" y="730" type="curve" smooth="yes"></point>
      <point x="310" y="398"></point>
      <point x="471" y="158"></point>
    </contour>
  </outline>
</glyph>
<glyph name="afii10052" format="1">
  <advance width="0"></advance>
  <unicode hex="0403"></unicode>
  <outline>
    <component base="acute" xOffset="497"></component>
    <contour>
      <point x="0" y="1006.75" type="move" smooth="yes"></point>
    </contour>
  </outline>
</glyph>
<glyph name="afii10059" format="1">
  <advance width="2027"></advance>
  <unicode hex="040A"></unicode>
  <outline>
    <contour>
      <point x="1011" y="0" type="line"></point>
      <point x="1479" y="0" type="line" smooth="yes"></point>
      <point x="1843" y="0"></point>
      <point x="1973" y="165"></point>
      <point x="1973" y="417" type="curve" smooth="yes"></point>
      <point x="1973" y="663"></point>
      <point x="1847" y="825"></point>
      <point x="1477" y="825" type="curve" smooth="yes"></point>
      <point x="1186" y="825" type="line"></point>
      <point x="1187" y="1471" type="line"></point>
      <point x="1011" y="1471" type="line"></point>
      <point x="1011" y="825" type="line"></point>
      <point x="322" y="825" type="line"></point>
      <point x="322" y="1471" type="line"></point>
      <point x="146" y="1471" type="line"></point>
      <point x="146" y="0" type="line"></point>
      <point x="322" y="0" type="line"></point>
      <point x="322" y="694" type="line"></point>
      <point x="1011" y="694" type="line"></point>
    </contour>
    <contour>
      <point x="1186" y="694" type="line"></point>
      <point x="1470" y="694" type="line" smooth="yes"></point>
      <point x="1713" y="694"></point>
      <point x="1803" y="623"></point>
      <point x="1803" y="417" type="curve" smooth="yes"></point>
      <point x="1803" y="212"></point>
      <point x="1702" y="131"></point>
      <point x="1472" y="131" type="curve" smooth="yes"></point>
      <point x="1186" y="131" type="line"></point>
    </contour>
  </outline>
</glyph>
<glyph name="afii10060" format="1">
  <advance width="1751"></advance>
  <unicode hex="040B"></unicode>
  <outline>
    <contour>
      <point x="1457" y="0" type="line"></point>
      <point x="1457" y="413" type="line" smooth="yes"></point>
      <point x="1457" y="644"></point>
      <point x="1347" y="714"></point>
      <point x="1138" y="714" type="curve" smooth="yes"></point>
      <point x="830" y="714" type="line"></point>
      <point x="830" y="0" type="line"></point>
      <point x="708" y="0" type="line"></point>
      <point x="708" y="1395" type="line"></point>
      <point x="260" y="1395" type="line"></point>
      <point x="260" y="1485" type="line"></point>
      <point x="1284" y="1485" type="line"></point>
      <point x="1284" y="1395" type="line"></point>
      <point x="830" y="1395" type="line"></point>
      <point x="830" y="811" type="line"></point>
      <point x="1136" y="811" type="line" smooth="yes"></point>
      <point x="1444" y="811"></point>
      <point x="1579" y="674"></point>
      <point x="1579" y="414" type="curve" smooth="yes"></point>
      <point x="1579" y="0" type="line"></point>
    </contour>
  </outline>
</glyph>
<glyph name="afii10145" format="1">
  <advance width="1480"></advance>
  <unicode hex="040F"></unicode>
  <outline>
    <contour>
      <point x="1265" y="1493" type="line"></point>
      <point x="1265" y="7" type="line"></point>
      <point x="807" y="7" type="line"></point>
      <point x="807" y="-294" type="line"></point>
      <point x="685" y="-294" type="line"></point>
      <point x="685" y="7" type="line"></point>
      <point x="191" y="7" type="line"></point>
      <point x="191" y="1493" type="line"></point>
      <point x="313" y="1493" type="line"></point>
      <point x="313" y="97" type="line"></point>
      <point x="1143" y="97" type="line"></point>
      <point x="1143" y="1493" type="line"></point>
    </contour>
  </outline>
</glyph>
<glyph name="afii10018" format="1">
  <advance width="988"></advance>
  <unicode hex="0411"></unicode>
  <outline>
    <contour>
      <point x="0" y="0" type="line"></point>
      <point x="501" y="0" type="line" smooth="yes"></point>
      <point x="865" y="0"></point>
      <point x="988" y="174"></point>
      <point x="988" y="426" type="curve" smooth="yes"></point>
      <point x="988" y="672"></point>
      <point x="868" y="844"></point>
      <point x="498" y="844" type="curve" smooth="yes"></point>
      <point x="176" y="844" type="line"></point>
      <point x="176" y="1360" type="line"></point>
      <point x="845" y="1360" type="line"></point>
      <point x="845" y="1496" type="line"></point>
      <point x="0" y="1496" type="line"></point>
    </contour>
    <contour>
      <point x="176" y="706" type="line"></point>
      <point x="492" y="706" type="line" smooth="yes"></point>
      <point x="730" y="706"></point>
      <point x="812" y="630"></point>
      <point x="812" y="423" type="curve" smooth="yes"></point>
      <point x="812" y="218"></point>
      <point x="716" y="137"></point>
      <point x="494" y="137" type="curve" smooth="yes"></point>
      <point x="176" y="137" type="line"></point>
    </contour>
  </outline>
</glyph>
<glyph name="afii10021" format="1">
  <advance width="1338"></advance>
  <unicode hex="0414"></unicode>
  <outline>
    <contour>
      <point x="0" y="-294" type="line"></point>
      <point x="0" y="98" type="line"></point>
      <point x="159" y="98" type="line"></point>
      <point x="251" y="164"></point>
      <point x="297" y="393"></point>
      <point x="349" y="1125" type="curve" smooth="yes"></point>
      <point x="376" y="1504" type="line"></point>
      <point x="1205" y="1504" type="line"></point>
      <point x="1205" y="98" type="line"></point>
      <point x="1338" y="98" type="line"></point>
      <point x="1338" y="-294" type="line"></point>
      <point x="1229" y="-294" type="line"></point>
      <point x="1229" y="7" type="line"></point>
      <point x="110" y="7" type="line"></point>
      <point x="110" y="-294" type="line"></point>
    </contour>
    <contour>
      <point x="488" y="1414" type="line"></point>
      <point x="463" y="1113" type="line" smooth="yes"></point>
      <point x="425" y="659"></point>
      <point x="400" y="270"></point>
      <point x="308" y="98" type="curve"></point>
      <point x="1083" y="98" type="line"></point>
      <point x="1083" y="1415" type="line"></point>
    </contour>
  </outline>
</glyph>
<glyph name="afii10027" format="1">
  <advance width="538"></advance>
  <unicode hex="0419"></unicode>
  <outline>
    <component base="breve" xOffset="145"></component>
    <contour>
      <point x="261" y="1005.27" type="move" smooth="yes"></point>
    </contour>
  </outline>
</glyph>
<glyph name="afii10029" format="1">
  <advance width="1474"></advance>
  <unicode hex="041B"></unicode>
  <outline>
    <contour>
      <point x="-76" y="-23" type="line"></point>
      <point x="0" y="-23" type="line" smooth="yes"></point>
      <point x="315" y="-23"></point>
      <point x="403" y="130"></point>
      <point x="403" y="437" type="curve" smooth="yes"></point>
      <point x="403" y="1339" type="line"></point>
      <point x="1122" y="1339" type="line"></point>
      <point x="1122" y="0" type="line"></point>
      <point x="1297" y="0" type="line"></point>
      <point x="1298" y="1470" type="line"></point>
      <point x="227" y="1471" type="line"></point>
      <point x="227" y="412" type="line" smooth="yes"></point>
      <point x="227" y="214"></point>
      <point x="189" y="123"></point>
      <point x="-12" y="123" type="curve" smooth="yes"></point>
      <point x="-76" y="123" type="line"></point>
    </contour>
  </outline>
</glyph>
<glyph name="afii10033" format="1">
  <advance width="1474"></advance>
  <unicode hex="041F"></unicode>
  <outline>
    <contour>
      <point x="171" y="0" type="line"></point>
      <point x="347" y="0" type="line"></point>
      <point x="347" y="1364" type="line"></point>
      <point x="1106" y="1364" type="line"></point>
      <point x="1106" y="0" type="line"></point>
      <point x="1282" y="0" type="line"></point>
      <point x="1282" y="1496" type="line"></point>
      <point x="171" y="1496" type="line"></point>
    </contour>
  </outline>
</glyph>
<glyph name="afii10037" format="1">
  <advance width="1031"></advance>
  <unicode hex="0423"></unicode>
  <outline>
    <contour>
      <point x="527" y="624" type="line"></point>
      <point x="910" y="1476" type="line"></point>
      <point x="1026" y="1476" type="line"></point>
      <point x="341" y="0" type="line"></point>
      <point x="226" y="0" type="line"></point>
      <point x="476" y="522" type="line"></point>
      <point x="-31" y="1476" type="line"></point>
      <point x="82" y="1476" type="line"></point>
    </contour>
  </outline>
</glyph>
<glyph name="afii10038" format="1">
  <advance width="1705"></advance>
  <unicode hex="0424"></unicode>
  <outline>
    <contour>
      <point x="898" y="262" type="curve"></point>
      <point x="898" y="1215" type="line"></point>
      <point x="1250" y="1180"></point>
      <point x="1404" y="1006"></point>
      <point x="1404" y="738" type="curve" smooth="yes"></point>
      <point x="1404" y="473"></point>
      <point x="1251" y="297"></point>
    </contour>
    <contour>
      <point x="765" y="264" type="line"></point>
      <point x="431" y="303"></point>
      <point x="277" y="474"></point>
      <point x="277" y="738" type="curve" smooth="yes"></point>
      <point x="277" y="1003"></point>
      <point x="430" y="1174"></point>
      <point x="765" y="1213" type="curve"></point>
    </contour>
    <contour>
      <point x="765" y="0" type="line"></point>
      <point x="898" y="0" type="line"></point>
      <point x="898" y="120" type="line"></point>
      <point x="1319" y="152"></point>
      <point x="1567" y="361"></point>
      <point x="1567" y="737" type="curve" smooth="yes"></point>
      <point x="1567" y="1115"></point>
      <point x="1320" y="1326"></point>
      <point x="898" y="1357" type="curve"></point>
      <point x="898" y="1488" type="line"></point>
      <point x="765" y="1488" type="line"></point>
      <point x="765" y="1355" type="line"></point>
      <point x="339" y="1314"></point>
      <point x="114" y="1092"></point>
      <point x="114" y="737" type="curve" smooth="yes"></point>
      <point x="114" y="384"></point>
      <point x="338" y="162"></point>
      <point x="765" y="121" type="curve"></point>
    </contour>
  </outline>
</glyph>
